<?xml version="1.0" standalone="no"?>
<!DOCTYPE svg PUBLIC "-//W3C//DTD SVG 1.1//EN" "http://www.w3.org/Graphics/SVG/1.1/DTD/svg11.dtd" >
<svg xmlns="http://www.w3.org/2000/svg" xmlns:xlink="http://www.w3.org/1999/xlink" version="1.1">
<metadata></metadata>
<defs>
<font id="scruff_letplain" horiz-adv-x="819" >
<font-face units-per-em="2048" ascent="1638" descent="-410" />
<missing-glyph horiz-adv-x="492" />
<glyph horiz-adv-x="0" />
<glyph unicode="&#xd;" horiz-adv-x="492" />
<glyph unicode=" "  horiz-adv-x="492" />
<glyph unicode="&#x09;" horiz-adv-x="492" />
<glyph unicode="&#xa0;" horiz-adv-x="492" />
<glyph unicode="!" horiz-adv-x="657" d="M170 72q0 55 41 98q41 41 96 41q58 0 99 -41q40 -41 40 -98t-40 -97q-41 -41 -99 -41q-55 0 -96 41t-41 97zM246 784l12 78l94 74l-71 133q-17 32 -17 53q0 33 39 60l64 41l-62 102l6 47l56 74l-21 -96l64 -90q13 -20 13 -39q0 -30 -30 -50l-80 -51l80 -143 q12 -21 12 -38q0 -29 -34 -54l-84 -68l84 -123l-54 -104l35 -60l-4 -153h-65l12 158l-21 40l54 99z" />
<glyph unicode="&#x22;" horiz-adv-x="1090" d="M326 1065l163 2l17 -31q0 -11 1 -16v-20q0 -94 -20 -156q-19 -59 -73 -90l12 -84l-18 -74h-19l4 45l-26 37l12 319zM422 963l4 -119l31 119h-35zM424 983h37l-21 37zM526 1049v41l119 28h57v-41l-84 -573h-22l-43 508zM596 1057l16 -35h27l10 43zM604 999l23 -157l8 159z " />
<glyph unicode="#" horiz-adv-x="1026" d="M70 453q0 97 32 185q32 87 90 153t140 103q81 36 182 36q134 0 234 -63q100 -64 154 -173t54 -241q0 -130 -54 -240q-56 -111 -155 -173q-100 -63 -233 -63q-101 0 -182 36q-83 36 -141 103q-59 68 -90 154q-31 84 -31 183zM113 453q0 -137 56 -235q55 -98 149 -148 q92 -50 196 -50q112 0 204 53q90 51 143 152q52 98 52 228q0 93 -27 171q-28 78 -81 138q-52 60 -128 93q-78 32 -163 32q-112 0 -204 -53q-92 -54 -145 -153q-52 -98 -52 -228zM147 428v31l215 -6v-31zM293 680l41 -8l67 -99v-38l-30 10l-74 112zM307 221v37l78 78l23 -27 l-72 -86zM430 356v140l49 34l103 -12q26 -41 26 -80q0 -30 -16 -61l-47 -33zM467 807l65 6l-10 -209h-28zM489 66l7 219l28 2l6 -221h-41zM612 305l25 25l82 -72l-12 -47zM621 567l84 82l34 -37l-94 -63zM653 434v29l209 -10v-33z" />
<glyph unicode="$" horiz-adv-x="1022" d="M0 289l35 129q31 26 69 26q46 0 86 -30q41 -32 48 -70q19 -18 56 -34q35 -16 81 -25l4 391q-31 16 -63 62q-31 44 -31 104q0 106 96 170q-6 202 -92 258l35 80l75 -13l-6 -92l41 -207q47 14 62 17l-33 86v71h90l-8 -155q20 0 30 -2l78 174h74l12 -88l-86 -15l-26 -82 q37 -11 70 -28q46 -27 83 -53q39 -22 87 -36q56 -16 120 -28l-14 -102l-70 -58l-112 17q0 29 1 41v40q0 37 -7 54q-8 17 -31 31q-51 31 -76 45q-28 15 -66 28l-30 -342q153 -61 153 -200q0 -58 -29 -107q-27 -47 -79 -80l41 -127l67 -18l21 -113l-121 21l-84 202 q-20 -5 -59 -10l34 -88l35 4l2 -94h-96q0 58 -11 105q-10 44 -26 63q0 -173 -74 -393l-84 12v86l52 10q27 72 38 138q10 58 13 167q-107 26 -164 68l-64 -78zM57 334l37 -62l99 72q-38 41 -67 41q-34 0 -69 -51zM299 -102v-52h49l-14 45zM328 1264l43 4v45l-43 4v-53z M334 842q0 -65 45 -107l2 215q-47 -42 -47 -108zM434 272q16 -2 35 -2q36 0 74 11l-13 292l25 89l6 342q-10 2 -26 2q-48 0 -95 -21zM453 367q0 13 10 22q10 8 20 8q13 0 21 -8t8 -22q0 -13 -8 -21t-21 -8q-11 0 -20 9q-10 7 -10 20zM455 489q0 31 30 31q29 0 29 -31 q0 -12 -8 -20t-21 -8q-30 0 -30 28zM467 616q0 13 8 21t21 8q14 0 22 -7q8 -8 8 -22q0 -13 -8 -21q-9 -9 -22 -9q-29 0 -29 30zM467 709q0 13 10 22q10 8 21 8q28 0 28 -30q0 -29 -28 -29q-12 0 -21 9q-10 7 -10 20zM467 809q0 31 31 31q13 0 20 -9q8 -10 8 -22 q0 -10 -8 -20q-7 -9 -20 -9t-22 9t-9 20zM469 913q0 31 29 31q30 0 30 -31q0 -12 -8 -20t-22 -8q-13 0 -21 8t-8 20zM479 1147l47 -2l-4 51l-43 8v-57zM492 117l4 -56h39l2 50zM565 459l45 -146q76 52 76 140q0 49 -23 86q-22 35 -85 63zM653 55h54l-13 49l-41 7v-56z M670 1153h47l-8 51l-39 4v-55zM833 835q0 -3 3 -6l51 -61l57 104q-35 0 -73 -12t-38 -25z" />
<glyph unicode="%" horiz-adv-x="1456" d="M82 1098l135 43q-10 39 -10 78q0 36 4 49l-55 59l77 4q32 67 93 104q62 38 137 38q56 0 100 -19l78 100l35 2l-62 -133q48 -35 76 -89q29 -56 29 -115q0 -55 -19 -100q-20 -49 -57 -83l53 -100l328 725h59l-872 -1907h-49l514 1137l-84 104q-62 -32 -129 -32q-25 0 -41 2 v-99h-45v111q-90 32 -144 123l-137 -45zM260 1219q0 -32 8 -62l54 17l12 -41l-47 -15q32 -57 90 -84v56l45 -3v-69q16 -2 41 -2q53 0 96 24l-33 41l4 49l70 -16l16 -29q50 65 50 134q0 94 -76 155l-15 -28l-67 -37v77l20 23q-24 10 -65 10q-65 0 -115 -35q-52 -37 -74 -94 l64 -6v-31l-76 -4v-16q0 -3 -0.5 -7t-1.5 -7zM485 129l144 66q-8 46 -8 67q0 70 35 134q35 62 94 102q59 38 131 43l26 207l37 -187l-4 -22q93 -10 160 -74l170 33l14 -43l-154 -27q56 -79 56 -166q0 -32 -4 -59l82 -156l-31 -31l-86 105q-34 -63 -101 -102 q-66 -39 -145 -39l-14 -144h-29l-6 148q-70 14 -122 56q-55 43 -83 105l-158 -51zM680 262q0 -25 6 -49l98 39l13 -41l-99 -41q25 -48 67 -83q40 -33 93 -44l19 72l34 -4l-6 -72q44 0 87 18q41 18 73 51q30 30 47 74l-65 107l79 -45v18q0 42 -17 84q-18 41 -44 70l-76 -17 l-16 37l49 13q-44 29 -90 32l-14 -73h-56l12 73q-81 -11 -137 -74q-57 -64 -57 -145z" />
<glyph unicode="&#x26;" horiz-adv-x="1298" d="M98 207q0 96 39 184q40 89 106 161q63 70 156 140q-73 125 -73 248q0 50 26 94q25 41 71 67q44 25 97 25q81 0 130 -52q48 -52 48 -122q0 -96 -56 -158q-56 -60 -173 -118q66 -104 140 -200q74 -95 182 -197q31 39 64 129q34 90 48 155q-57 60 -104 60q-55 0 -113 -91 l-59 132q78 108 190 108q31 0 57 -14q20 -11 59 -41q36 -29 52 -38q19 -11 37 -11q32 0 58 29q25 28 34 61l88 -99q-72 -157 -176 -157q-41 0 -86 30q-53 -174 -115 -284q114 -109 246 -191q30 43 82 43q46 0 75 -29q27 -28 27 -73q0 -42 -30 -72t-72 -30t-71 28 q-31 27 -31 70q0 10 2 20q-121 73 -254 189q-53 -78 -104 -131q-56 -57 -133 -95q-79 -38 -173 -38q-98 0 -165 46q-67 45 -96 108q-30 62 -30 114zM180 201l23 -43l45 20l-23 37zM199 356l22 -45l45 23l-22 37zM260 88l23 -43l45 23l-23 34zM279 485l22 -45l43 23l-18 35z M301 244q0 -46 28 -75q29 -30 72 -30q80 0 147 63q67 61 111 134q-59 64 -83 94q-36 45 -80 105q-195 -177 -195 -291zM367 580l22 -45l45 22l-22 35zM375 940q0 -105 67 -223q85 45 123 73q38 27 62 68q22 38 22 94t-37 90q-38 35 -92 35q-61 0 -103 -39t-42 -98zM428 74 l25 -45l43 22l-23 35zM565 143l21 -45l45 23l-23 37zM666 227l22 -39l45 23l-22 35z" />
<glyph unicode="'" horiz-adv-x="891" d="M326 1049v41l118 28h60v-41l-86 -573h-23l-43 508zM395 1057l17 -35h26l11 43zM403 999l23 -157l8 159z" />
<glyph unicode="(" horiz-adv-x="944" d="M367 631q0 175 36 332q36 156 116 297q79 137 208 245l-51 97l-4 86l116 67l179 -57q1 -11 1 -45q0 -72 -13 -108q-13 -37 -47 -54q-36 -17 -99 -17q-9 0 -13 1h-16q-105 -82 -183 -195q-79 -112 -126 -276q-47 -165 -47 -373q0 -275 89 -489q88 -214 265 -355l80 88 l148 -16l51 -152q-7 -58 -44 -87q-35 -30 -104 -60l-155 30l8 136q-106 80 -180 179q-74 98 -122 217q-48 115 -71 247q-22 125 -22 262z" />
<glyph unicode=")" horiz-adv-x="944" d="M-115 1608q9 58 45 88q35 29 103 59l155 -31l-8 -135q107 -78 183 -180q75 -100 122 -214q46 -114 68 -244q22 -128 22 -267q0 -174 -36 -332q-36 -157 -116 -296q-39 -69 -92.5 -131.5t-115.5 -114.5l51 -97l4 -86l-116 -67l-179 57q-1 11 -1 45q0 70 14 109 q13 36 48 53q33 16 100 16h26q104 82 184 195q78 113 125 277q47 165 47 372q0 140 -21 261q-22 120 -66 228q-45 109 -111 197q-68 90 -156 158l-80 -88l-147 16z" />
<glyph unicode="*" horiz-adv-x="641" d="M-4 1348l197 10l6 14l-113 90l-2 29l39 2l143 -92l37 162l37 -4l-21 -113l41 -23l156 62l-113 -103l25 -47h125v-39h-90l-55 -14l55 -92v-31l-60 31l-34 51l-66 -31l-4 -129l-39 6v144h-33l-47 -43l-57 -6v12l70 78l-21 39l-174 -2zM236 1309q0 -25 19 -43q18 -19 44 -19 t44 19q17 19 17 43q0 25 -17 45q-18 18 -44 18t-44 -18q-19 -19 -19 -45z" />
<glyph unicode="+" d="M68 0v1366h684v-1366h-684zM82 14h655v1338h-655v-1338z" />
<glyph unicode="," horiz-adv-x="891" d="M98 -178l4 35q56 -8 104 -8q197 0 197 144q0 8 -2 32q-35 -5 -52 -5q-70 0 -105 42q-35 43 -35 108q0 44 20 86q19 40 64 68q44 28 119 28q77 0 135 -38q56 -40 86 -99q29 -63 29 -121q0 -136 -95 -239q-94 -103 -254 -103q-65 0 -121 19t-94 51zM252 -195q36 -4 61 -4 q80 0 148 34q71 35 110 101q41 67 41 158q0 87 -54 148q-55 61 -146 61q-71 0 -112 -34q-42 -34 -42 -99q0 -51 22 -76t69 -25q17 0 38 3l74 69l18 -41l-30 -53q5 -37 5 -54q0 -167 -202 -188zM299 125l16 74h74l-16 -82z" />
<glyph unicode="-" horiz-adv-x="719" d="M102 471l97 90l28 -8l269 4v33l120 -55l-2 -39l-57 -43h-43v20h-59l-49 -16zM236 532l51 -28l63 8h146l4 25z" />
<glyph unicode="." horiz-adv-x="891" d="M141 229l262 160l246 -14l29 -232l-211 -149l-219 -19zM344 188q0 -33 24 -59q24 -25 58 -25q36 0 60 25q24 26 24 59q0 34 -24 58t-60 24q-34 0 -58 -24t-24 -58z" />
<glyph unicode="/" horiz-adv-x="1038" d="M-70 -449l23 154l250 348l379 838l86 313l354 602l80 9l6 -76l-424 -774l-152 -535l-548 -889z" />
<glyph unicode="0" horiz-adv-x="1231" d="M29 102l227 150q-43 87 -43 186q0 118 68 230l-228 227l264 176l99 -272q98 59 219 59q105 0 199 -49l104 268l221 -200l-201 -170q97 -115 97 -269q0 -140 -86 -256l192 -135l-178 -217l-154 238q-89 -52 -194 -52q-128 0 -223 62l-168 -176zM262 438q0 -93 47 -179 q47 -87 132 -139q86 -54 194 -54q93 0 179 47q85 46 139 132q53 86 53 193q0 77 -28 143q-29 68 -79 119q-53 53 -119 81t-145 28q-77 0 -143 -28q-68 -28 -120 -80q-53 -53 -81 -119q-29 -69 -29 -144z" />
<glyph unicode="1" horiz-adv-x="1040" d="M29 705v51l313 157v228h51v-201l350 178v-1085l213 -56v-49l-428 111l-419 -105v50l235 59v821zM393 55l84 21v856l-84 -43v-834zM606 68l90 -23v997l-90 -45v-929z" />
<glyph unicode="2" horiz-adv-x="1282" d="M29 -12q115 27 246 115q66 44 130.5 94.5t120.5 103.5l-96 180h268q34 44 70 103l-109 96l154 117q-10 40 -37 71l-239 -30l-15 151q-106 0 -162 -10q-59 -11 -131 -51q62 -35 62 -101q0 -44 -34 -78t-79 -34q-44 0 -78 34t-34 78t27 75q28 32 67 38q124 100 342 100 q49 0 102 -13q59 -14 109 -40q53 -28 90 -69l282 30l-217 -166q4 -25 4 -45q0 -66 -41 -143l158 -148l-260 -6q-31 -37 -117 -127h527v125h51v-125h92v-51h-92v-319h-1161v45zM309 -6h113v153q-12 -9 -40.5 -30.5t-72.5 -55.5v-67zM471 -6h86v268q-22 -22 -46 -41 q-13 -12 -25.5 -22.5t-14.5 -12.5v-192zM508 436l55 -100q34 34 46 46.5t25 25.5q18 19 18 20q4 6 7 10zM575 983l9 -90l153 16q-66 54 -162 74zM612 -6h103v268h-103v-268zM735 680l58 -51q28 60 28 116zM762 481h121l-76 68q-4 -8 -45 -68zM764 -6h127v268h-127v-268z M836 877q9 -16 20 -50l80 62zM940 -6h96v268h-96v-268zM1090 -6h49v268h-49v-268z" />
<glyph unicode="3" horiz-adv-x="885" d="M-184 -328l250 183l-31 -230q82 -25 158 -28l-19 69l12 49l43 -14l23 -104q119 6 197 49l-37 51l8 47l47 -18l37 -50q75 57 98 136l-35 -5l-41 15l31 45l55 4q0 123 -65 199l-164 -90l-49 40l168 93q-109 88 -316 116l238 123l-125 191q34 -2 37 -2q75 0 115 33t40 82 q0 76 -83 132l120 119q-80 42 -223 56q0 -54 -39 -93t-94 -39t-94 39t-39 93q0 55 39 94t94 39q44 0 78 -24q34 -25 47 -62q116 -7 220 -41q102 -33 177 -114q74 -82 74 -216q0 -120 -70 -205t-167 -135q-92 -47 -173 -68q109 -21 191 -92l72 41l41 -10l-17 -45l-55 -31 q68 -85 72 -219l120 8l45 -8l-14 -45l-160 -14q-22 -105 -121 -178l86 -119l-49 -39l-90 123q-103 -50 -215 -56l23 -108l-62 -10l-22 118q-73 0 -174 27l-37 -276l-53 8l38 286q-73 27 -161 80zM-82 -322q28 -16 66 -32l10 92z" />
<glyph unicode="4" horiz-adv-x="1372" d="M66 23l133 204l-111 95q49 46 105 146q53 95 94 197q40 99 57 160l162 -129l270 416l35 -895q55 -4 94 -43q38 -39 39 -94l205 -23l137 29l-18 254l43 2l35 -541l-41 -4l-17 244l-139 -29l-211 23q-14 -42 -44 -66q-32 -26 -73 -30l19 -484l264 -18l-2 -41l-277 18 l-221 -32l-2 43l193 26l-19 488q-42 9 -70 39q-31 29 -38 69zM150 70l516 22q4 43 33 76q30 33 69 43l-29 770zM702 94l70 4l-4 72q-51 -20 -66 -76zM707 49q17 -57 69 -69l-4 73zM813 176l2 -82l88 -10q-3 36 -29 62q-25 25 -61 30zM817 47l4 -70q56 12 74 62z" />
<glyph unicode="5" horiz-adv-x="1282" d="M106 -412q0 67 50 117q49 49 116 49q48 0 85 -22t60 -61q23 -38 23 -83t-22 -82q-22 -38 -66 -63q101 -14 195 -14q95 0 182 24q85 22 152 68q65 46 101 108q35 62 35 133q0 20 -1 25l-94 47l139 -4q4 -19 4 -52q0 -63 -23 -124q50 80 50 170q0 114 -98 194t-308 80h-65 l6 -108l-54 4l-16 100q-76 -6 -94 -8v-84h-45v78q-31 -4 -94 -17l2 -81l-43 2l-2 69q-45 -8 -81 -17q-27 -7 -36 -9l-10 913h106l-2 66l41 2l10 -68l109 -2v57h45v-57h84v98l26 -98l658 -2l-334 -250l6 205h-321l36 -748q30 2 68 2q111 0 195 -12.5t144 -37.5 q125 -51 168 -123q44 -73 44 -148q0 -52 -14 -88h-35q12 36 12 73q0 63 -32 118q-31 53 -76 67q49 -91 49 -176q0 -87 -45 -166q-45 -81 -124 -142t-188 -96q-110 -35 -229 -35q-175 0 -311 43q-138 43 -138 166zM201 893l8 -807q4 1 24 5q4 1 7.5 1.5t6.5 1.5t6 1 q5 1 9.5 2t16.5 3l-19 793h-59zM315 893l19 -125l2 -371l-14 -37l2 -249q29 4 40 7q-2 0 54 7v766zM463 131q17 3 90 8l-8 66l2 686h-84v-760z" />
<glyph unicode="6" horiz-adv-x="1063" d="M90 430q0 129 37 252q35 123 98 237q61 111 130 200q66 84 134 151l-57 35l31 47l69 -43q50 46 86 65l23 -43q-21 -10 -66 -49l179 -115l-31 -47l-193 123q-77 -74 -152 -173q-74 -98 -122 -193q-53 -105 -86 -219q-31 -108 -31 -228q0 -124 48 -225q47 -99 140 -157 q91 -58 216 -58q91 0 170 29q80 30 130 80q53 51 81 126q28 74 28 164q0 75 -37 142q-38 67 -108 107t-158 40q-130 0 -215 -74q-84 -73 -84 -205q0 -97 54 -156t161 -59q51 0 89 19q38 18 61 53q22 34 22 82q0 90 -65 129q8 -18 8 -43q0 -48 -33 -81q-34 -34 -82 -34 q-46 0 -80 34t-34 81t34 81q33 34 80 34q101 0 162 -50q59 -51 59 -151q0 -80 -60 -142q-60 -61 -161 -61q-132 0 -198 77t-66 187q0 81 38 159q37 75 118 122q80 47 192 47q96 0 178 -44q81 -44 127 -122q47 -79 47 -172q0 -141 -60 -243q-62 -102 -166 -153 q-104 -52 -232 -52q-132 0 -236 63q-104 62 -160 175q-57 113 -57 251z" />
<glyph unicode="7" horiz-adv-x="1124" d="M49 578v411l170 -45l322 62l477 -25q-77 -317 -193 -623q27 -16 27 -51q0 -24 -19 -43q-20 -20 -55 -20l-69 -166q36 -28 36 -76q0 -41 -28 -68q-28 -28 -66 -28q-2 0 -18 2l-82 -174q24 -26 24 -56t-21 -52q-22 -24 -49 -24q-9 0 -18 3l-118 -250l-41 6l125 260 q-27 22 -27 57q0 28 22 53q23 24 50 24q9 0 18 -3l80 172q-43 27 -43 78q0 39 27 67q26 29 69 29q13 0 25 -2l69 164q-22 16 -22 47q0 27 20 47q19 19 47 19l66 176l-297 -14l-88 28l-186 -4l-90 35zM113 731l22 -63l55 30l-24 56zM152 856l24 -63l55 30l-24 54zM236 653 l22 -63l55 31l-24 55zM272 780l23 -63l55 33l-22 53zM354 915l23 -63l55 31l-22 53zM420 762l24 -64l56 33l-25 53zM569 805l25 -64l55 31l-24 53zM596 946l25 -63l55 30l-25 54zM688 776l23 -63l55 30l-25 56zM752 643l24 -63l55 32l-24 54zM823 850l23 -66l55 33l-22 53z " />
<glyph unicode="8" horiz-adv-x="967" d="M57 545l224 192l-164 150l252 59q83 107 219 107q77 0 138 -40t97 -116q35 -78 35 -176q0 -83 -38 -174q-39 -90 -123 -186q-85 -99 -199 -183q71 -96 77 -104l388 -43l-226 -183l262 -260l-315 -22l12 -289l-196 188q-38 -8 -88 -8q-308 0 -308 271q0 76 50 168t155 190 q-16 47 -45 87q-30 42 -64 71q-46 38 -79 61l147 180zM139 561l133 -35q-6 41 -6 82q0 34 2 62zM154 -272q0 -106 61 -164t197 -58q150 0 208 70t58 156q0 56 -18 109t-49 100q-38 59 -86 119q-19 25 -25 32t-16.5 21t-18 22.5t-8.5 9.5q-303 -233 -303 -417zM180 311 q89 -60 164 -194q7 6 15.5 13t12.5 11l14 12t13 12q9 7 27 23q-51 71 -85 138q-33 62 -52 123zM207 864l82 -80q17 68 45 111zM315 608q0 -70 21 -138q19 -66 55 -131q37 -68 76 -122q113 86 189 171q75 84 115 170q38 84 38 163q0 82 -27 146q-28 63 -78 101 q-51 36 -116 36q-92 0 -154 -59q-61 -58 -90 -150q-29 -93 -29 -187zM350 -207q0 25 16 41t42 16q27 0 43 -16t16 -41q0 -24 -17 -41q-18 -18 -42 -18t-41 17t-17 42zM489 641q0 27 20 47q19 19 44 19q28 0 47 -19q18 -19 18 -47q0 -26 -18 -46q-20 -20 -47 -20 q-24 0 -44 20t-20 46zM549 -522l100 -92l-10 139q-38 -32 -90 -47zM614 25q59 -83 84 -144l162 119zM705 -385l192 10l-174 164q4 -32 4 -57q0 -70 -22 -117z" />
<glyph unicode="9" horiz-adv-x="1155" d="M10 471q9 127 40 226q32 100 128 184l60 -50q70 89 170 136q99 45 210 45q159 0 275 -107q67 -64 101 -141q34 -78 34 -178q0 -108 -22 -230q-21 -116 -64 -261q-43 -141 -105 -295q-71 -173 -149 -332q-44 -89 -123 -89q-53 0 -91 38t-38 91q0 55 37 92q38 38 92 38 q38 0 69 -19t46 -53q72 153 133 308q56 146 93 273q36 122 55 237q18 111 18 202q0 99 -46 187t-129 139q-84 51 -186 51q-213 0 -342 -164l95 -78q88 82 209 82q84 0 148 -37q63 -37 101 -109q37 -73 37 -172q0 -94 -46 -173q-46 -81 -131 -129q-84 -48 -193 -48 q-134 0 -233 84q-99 82 -120 236zM186 535q0 -107 42 -187q41 -80 111 -122q71 -42 157 -42q85 0 160 39q75 38 118 107q43 67 43 155q0 101 -38 163q-39 60 -92 83q-54 23 -107 23q-50 0 -94 -18q-45 -20 -72 -43q-31 -26 -41 -40l-123 105q-64 -106 -64 -223z" />
<glyph unicode=":" horiz-adv-x="891" d="M199 215l219 137l209 -10l28 -195l-180 -131l-190 -16zM215 752l180 129l191 18l86 -215l-219 -139l-209 12zM362 717q0 -28 21 -49t49 -21q29 0 51 21q21 20 21 49t-20 51q-22 20 -52 20t-50 -21q-20 -22 -20 -50zM367 180q0 -29 21 -49q22 -20 50 -20q27 0 49 20 q21 20 21 49q0 30 -20 52q-22 20 -50 20q-30 0 -50 -20q-21 -21 -21 -52z" />
<glyph unicode=";" horiz-adv-x="891" d="M104 -143l2 28q43 -7 87 -7q169 0 169 122q0 7 -2 29q-19 -4 -43 -4q-59 0 -88 35q-30 35 -30 92q0 62 42 108q42 47 130 47q95 0 154 -68q57 -67 57 -151q0 -73 -35 -141t-103 -109t-157 -41q-54 0 -103 17q-46 15 -80 43zM135 762l213 151l219 19l105 -254l-260 -162 l-246 14zM233 -158q33 -4 54 -4q66 0 126 29q59 28 93 87q35 58 35 134q0 44 -20 86q-22 42 -59 67t-91 25q-60 0 -95 -29q-36 -30 -36 -85q0 -44 18 -65t59 -21q17 0 33 2l62 59l16 -35l-27 -45q4 -21 4 -48q0 -142 -172 -157zM274 115l15 61h61l-12 -70zM303 719 q0 -34 25 -59t59 -25q36 0 60 25q24 26 24 59q0 36 -24 60t-60 24q-33 0 -59 -24q-25 -24 -25 -60z" />
<glyph unicode="&#x3c;" horiz-adv-x="1112" d="M41 686l35 53q19 31 43 31q16 0 39 -14l71 -45q-8 171 -8 247q0 148 24 244q24 95 66 145q42 48 91 63q50 15 110 15q45 0 100 -12q70 -18 148 -41l16 14l-8 101l31 -14l20 -72q12 3 24 3q9 0 34 -5l43 110l26 -14l-43 -113q14 -14 17 -18l55 27l47 -13l-86 -53 q2 -6 2 -15q0 -4 -2 -20l133 -49l-14 -31l-137 39q-2 -3 -11 -12l60 -119l-41 -8l-66 102h-29l-61 -104l-29 14l56 101q-20 12 -27 22l-125 -14l23 33l82 20q-5 15 -5 24q0 8 5 23q-79 29 -138 42q-56 13 -100 13q-82 0 -135 -34q-55 -34 -85 -129q-30 -94 -30 -265 q0 -139 8 -241l97 59q15 12 30 12q16 0 25 -16l59 -96q9 -15 21 -15t18 13l72 121q20 30 59 30h193q23 -51 37 -98q51 -6 51 -60q0 -23 -14 -43q-15 -20 -41 -20l-5 -65q30 -9 44 -29t14 -46q0 -28 -19 -50t-49 -25l-4 -47q53 -41 53 -95q0 -65 -75 -91l-19 -176l119 4 l98 -39l-14 -37l-98 41l-109 -6l-4 -54l-43 -2l6 56l-106 -11l-2 39l112 9l62 630q2 40 2 43q0 94 -27 131h-162q-18 0 -26 -12l-68 -110q-23 -38 -58 -38q-33 0 -57 38l-45 69q-3 7 -11 7q-6 0 -11 -3l-101 -63q0 -28 17.5 -178t50.5 -414l254 26l25 -219l-515 -49l-38 213 l235 25q-36 260 -44 335q-13 104 -26 251l-96 61q-11 8 -18 8q-10 0 -19 -16l-28 -45z" />
<glyph unicode="=" horiz-adv-x="635" d="M-143 -543l862 1907h59l-872 -1907h-49z" />
<glyph unicode="&#x3e;" horiz-adv-x="1081" d="M41 686l35 53q19 31 43 31q16 0 39 -14l71 -45q-8 171 -8 247q0 194 42 297q41 104 104 137t145 33q69 0 238 -51q15 4 26 4q33 0 62 -20l41 182l41 -8q-24 -135 -57 -298q-14 -70 -26 -134t-17.5 -93.5t-30.5 -162.5q-37 -196 -59 -357q-19 -137 -19 -233 q0 -127 45 -190q45 -64 141 -64q68 0 114 49t46 135q0 43 -15 77t-43 53q-28 18 -67 18q-33 0 -59 -15q-27 -15 -41 -41q-15 -27 -15 -63q0 -46 16 -65q15 -21 50 -21q20 0 37 17q16 16 16 36q0 46 -47 70l18 39q72 -39 72 -109q0 -39 -27 -68q-27 -28 -69 -28 q-109 0 -109 129q0 70 42 116t116 46q81 0 125 -53q43 -53 43 -138q0 -92 -53 -160q-54 -67 -150 -67q-229 0 -229 297q0 162 63 532l-80 -2q-18 0 -26 -12l-68 -110q-23 -38 -58 -38q-33 0 -57 38l-45 69q-3 7 -11 7q-6 0 -11 -3l-101 -63q0 -28 17.5 -178t50.5 -414 l254 26l25 -219l-515 -49l-38 213l235 25q-36 260 -44 335q-13 104 -26 251l-96 61q-11 8 -18 8q-10 0 -19 -16l-28 -45zM262 958q0 -139 8 -241l97 59q15 12 30 12q16 0 25 -16l59 -96q9 -15 21 -15t18 13l72 121q20 30 59 30h88q31 175 64 344q-15 -4 -27 -4q-44 0 -75 31 t-31 76q0 46 32 76q-134 38 -190 38q-71 0 -111 -20q-38 -19 -69 -61q-34 -50 -52 -134q-18 -82 -18 -213z" />
<glyph unicode="?" horiz-adv-x="979" d="M113 1457q0 29 8 75l100 -146q79 51 137 70l56 72l116 -45q64 0 125 -19q29 15 67 15q31 0 53 -11q20 -12 20 -32v-62q41 -48 57 -121l55 -24l-49 -94q-7 -90 -67 -162l-7 -133l-149 4l-80 -53v-82l-96 -7q-41 -64 -41 -119q0 -30 17 -75q16 -44 16 -68q0 -33 -25 -61 h-49q18 23 18 47q0 16 -4 29q-1 5 -3.5 13t-6.5 23q-7 22 -11 43q-6 23 -6 45q0 64 39 130q-11 46 -11 75q0 68 56 68q32 0 78 -21q15 13 67 45q51 32 92 62q42 31 74 71q35 43 44 95l-53 57v66l51 22q-12 49 -39 82l-100 23l-13 61q-51 17 -123 17l-45 -46l-102 25 q-49 -17 -121 -61l139 -86l-22 -43q-91 23 -149 54q-59 32 -86 77q-27 44 -27 105zM268 70q0 58 40 98q41 41 100 41q58 0 98 -40q39 -40 39 -99q0 -57 -40 -97q-41 -41 -97 -41q-58 0 -99 41t-41 97z" />
<glyph unicode="@" d="M68 0v1366h684v-1366h-684zM82 14h655v1338h-655v-1338z" />
<glyph unicode="A" horiz-adv-x="1614" d="M43 -98l45 204l197 -30l473 1145l-135 188l57 29l782 -1098q18 2 20 2q57 0 94 -40q38 -41 38 -103q0 -39 -19 -70t-51 -51q-32 -19 -71 -19q-56 0 -99 41q-43 40 -43 99q0 75 72 123l-146 198l-499 -49l-256 -43l-154 -362l260 -43l-45 -203zM221 193l27 47l45 -21 l-21 -47zM299 346l25 47l47 -22l-23 -45zM344 520l27 47l45 -22l-21 -47zM412 676l26 47l47 -21l-22 -47zM485 842l25 47l47 -23l-22 -45zM561 995l25 45l47 -20l-21 -47zM621 1163l24 47l47 -20l-20 -47zM625 731q15 -1 73 -1q116 0 205 9t174 29l-274 393z" />
<glyph unicode="B" horiz-adv-x="1358" d="M84 160q0 41 27 66q28 26 65 26q27 0 46 -12t33 -32q11 -19 13 -44l20 -4t28 -7q39 -11 65 -16v535q-82 -22 -180 -54l37 269q7 -1 21.5 -2.5t30 -3t25.5 -2.5q60 -6 66 -7v510q-117 -17 -170 -30l-12 47q97 23 182 35v114h37v-108q82 8 164 8q240 0 367 -76 q128 -77 128 -221q0 -105 -62 -179q-63 -75 -194 -114q-130 -39 -323 -39q-46 0 -80 2v-88q209 51 368 51q95 -4 138 -12l305 135l-129 -211q49 -39 76 -100l204 -6l-180 -96q4 -31 4 -48q0 -56 -18 -112l157 -84l-204 -6q-57 -84 -166 -138l45 -102l-41 -18l-45 104 q-114 -43 -260 -43q-103 0 -254 31v-78h-37v86q-104 24 -123 31q-10 -22 -33 -36q-22 -13 -49 -13q-38 0 -65 27t-27 65zM258 690q62 18 123 33v98q-54 4 -105 10zM418 129q173 -33 254 -33q143 0 239 37l-61 137l250 4q19 22 30 52l-169 86l190 96q-5 31 -14 57l-160 6 l65 105q-77 59 -260 59q-167 0 -364 -51v-555zM418 870q38 -2 74 -2q234 0 370 54l-61 100q47 0 77 30q29 29 29 73q0 53 -48 101q-49 48 -150 70l32 93q-71 10 -159 10q-15 0 -32.5 -0.5t-28.5 -1.5q-15 0 -32 -0.5t-26 -1.5q-8 0 -21 -1.5t-24 -2.5v-521zM918 233l36 -81 q68 31 117 88zM983 758q47 -15 84 -39l68 106zM1040 602l82 -4q-24 37 -49 55zM1042 408l99 -52q14 61 14 90v23zM1159 274l64 2l-52 27q-5 -12 -5 -13q-1 -2 -7 -16zM1188 563q1 -4 2.5 -9.5t1.5 -7.5q1 -2 1 -6.5t1 -9.5l59 29z" />
<glyph unicode="C" horiz-adv-x="1212" d="M16 344l209 293l2 20l-188 103l258 155q6 14 7 16q0 1 5 13l-192 172l319 37q2 2 5 6.5t8 9.5l-160 193l313 -43l-6 194l154 -149q59 8 84 8q124 0 200 -73t84 -209q41 -12 69 -47q27 -36 27 -80q0 -56 -40 -96t-93 -40t-94 41t-41 95q0 52 36 89q35 38 85 44 q-6 100 -65 164q-58 63 -168 63q-95 0 -196 -59q-100 -59 -187 -173q-86 -115 -137 -279q-52 -163 -52 -366q0 -92 29 -177q28 -83 91 -144q62 -61 150 -78l113 199l70 -205q151 24 317 166l31 -39q-53 -45 -107 -82q-49 -33 -107 -58q-56 -24 -118 -34l37 -111l-39 -12 l-39 117q-7 -1 -36 -1q-64 0 -107 7l-146 -256l-18 321l-2 2l-2 2q-2 1 -6 5l-277 -45l137 260q-1 4 -1 10q-2 6 -3 10zM86 373l135 -25q-8 43 -8 98q0 46 4 109zM119 762l117 -66q14 78 40 160zM170 76l164 26q-60 69 -82 134zM209 1085l117 -102q29 59 55 94q3 4 5.5 7.5 t4.5 7.5q4 5 10 16zM385 1309l90 -111q39 42 94 84zM424 35l8 -162l76 129q-36 8 -84 33zM573 41q22 -5 76 -5q21 0 25 1l-39 113zM639 1417l2 -92q29 14 66 27z" />
<glyph unicode="D" horiz-adv-x="1696" d="M70 1372q0 51 39 88q37 37 92 37q44 0 78 -24q34 -26 47 -64h614q227 0 387 -72t244 -217t84 -356q0 -491 -436 -717q-109 -55 -278 -81q-171 -26 -350 -26q-182 0 -341 21v51q131 -18 218 -18q4 0 58 2v98l119 82l-147 125l112 66l-135 137l133 94l-137 96l170 146 l-199 94l234 123l-127 80l104 88l-118 51l-21 88h-184q-3 -50 -40 -84q-38 -35 -89 -35q-52 0 -92 38q-39 38 -39 89zM317 926q0 20 17 35q17 14 37 14q19 0 36 -14q15 -15 15 -35q0 -22 -16 -35q-17 -14 -35 -14q-20 0 -37 14t-17 35zM322 692q0 25 18 43q17 17 43 17 q24 0 43 -17q18 -16 18 -43q0 -24 -18 -41q-19 -18 -43 -18q-25 0 -43 18t-18 41zM369 266q0 26 16 41q17 15 41 15t42 -15q17 -15 17 -41q0 -24 -17 -39q-17 -16 -42 -16t-41 16t-16 39zM375 512q0 17 12 29q11 12 27 12q18 0 28 -12q11 -13 11 -29q0 -15 -12 -27t-27 -12 t-27 12t-12 27zM440 1133q0 19 14 31t31 12q19 0 33 -11q12 -12 12 -32q0 -19 -13 -31t-32 -12q-18 0 -31 13q-14 12 -14 30zM821 2q150 6 330 75q179 68 316 238t137 449q0 172 -58 289q-59 120 -155 186t-211 95q-114 27 -241 27q-47 0 -91 -3z" />
<glyph unicode="E" horiz-adv-x="1292" d="M121 8l4 49l201 4l16 578l-66 -2l3 49h63l18 569l-192 -6v45l194 6v64h46v-64l639 13l-52 -383l-225 8l53 326l-415 -11l-17 -563l668 12q6 32 36 57q29 25 70 25q45 0 77 -32q30 -33 30 -78q0 -46 -30 -78q-31 -33 -77 -33q-43 0 -72 25q-31 24 -36 65l-670 -12 l-14 -582l477 11l-4 346l244 10l8 -354l67 2l2 -45l-794 -17l-4 -75l-47 2l2 73z" />
<glyph unicode="F" horiz-adv-x="1016" d="M70 1409l14 37l209 -70l723 23v-39l-158 -6l6 -224l-565 -26v-494l606 11v-279h-39v92l-567 -28v-420h313v-41h-528v41h168v1360z" />
<glyph unicode="G" horiz-adv-x="1188" d="M113 551q0 153 44 287q43 131 138 232q93 99 239 155q147 56 349 59v168l184 -12v-406h-182v201q-340 -3 -525 -170q-69 -62 -110 -135q-42 -72 -65 -169t-23 -210q0 -119 35 -221t102 -174q60 -61 159 -105q98 -45 218 -45q121 0 214 48q94 49 143 136q50 88 50 199 q0 156 -94 250q-96 96 -254 96q-95 0 -167 -33t-112 -97t-40 -159q0 -247 260 -247h96v118q-27 -24 -72 -24q-50 0 -85 35t-35 86t35 86t85 35q51 0 86 -35t35 -86v-264h-145q-92 0 -163 33q-70 32 -108 99t-38 164q0 75 26 139q26 62 75 107q50 44 117 68q68 24 150 24 q112 0 203 -47q90 -48 143 -137q52 -88 52 -211q0 -122 -56 -220q-56 -99 -161 -155q-105 -57 -240 -57q-143 0 -272 62t-209 196q-41 69 -61.5 153.5t-20.5 182.5z" />
<glyph unicode="H" horiz-adv-x="1710" d="M113 -29l39 47l86 -84l61 66v330h-66v55h66v143l-152 -39l19 297l133 23v147l-88 -4v49l88 5v284h51v-282l1032 39l88 337l46 -10l-84 -325l73 2l2 -50l-73 -2v-153l206 -4l-30 -156l-174 -6v-602l200 10l4 -53l-335 -15v52l79 6v295l-1034 -39v-361l-76 -77l91 -91 l-46 -38zM350 387l348 12l-4 154l-155 4l-189 -20v-150zM350 596l166 8l-4 170l-162 -8v-170zM487 817l222 8l4 146l-215 -8zM670 608l225 31l8 55v76l-229 4zM885 408l237 8l15 227l-238 -63zM899 885l4 -51l219 8l8 71l-40 72l-172 -6zM1130 702l154 17v72l-154 -21v-68z M1260 422l124 4v246l-116 -56zM1300 993l5 -143h79v147z" />
<glyph unicode="I" horiz-adv-x="967" d="M100 16l39 185h277l-25 438l-127 -61l62 110l-2 4l-117 21l84 59l-90 59l121 9l-9 123l101 -78l10 280l-244 -4l-4 197l252 2l4 86h37l-4 -86l477 6l-8 -197l-473 -4l-8 -291l120 60l-18 -90h123l-84 -82l100 -66l-116 -20l40 -82l-108 39l-6 -88l-76 86l27 -430l526 2 l-4 -180l-510 -3l2 -83l-35 -3l-4 86zM178 76h49l-4 49h-41zM238 1231l53 8l-8 45l-45 6v-59zM252 721l59 -8q-8 14 -8 41zM254 817l55 -33q6 22 25 37zM307 618l76 35q-24 9 -43 25zM317 76l43 8l2 43l-45 2v-53zM336 918l6 -87q28 21 68 27zM342 752q0 -30 33 -51 q32 -21 71 -21q51 0 79 23q26 23 26 49q0 25 -32 48q-31 21 -73 21q-51 0 -77 -22q-27 -22 -27 -47zM377 1227h51l-10 51l-39 4zM442 88h56l-6 43h-50v-43zM442 641l47 -55l3 59q-20 -4 -50 -4zM467 860q36 -3 61 -18l15 57zM516 653l68 -26l-29 49q-23 -19 -39 -23z M535 1280l10 -53l47 2l-4 55zM555 823q16 -11 31 -39l39 39h-70zM575 698l72 9l-57 36q0 -25 -15 -45zM600 133l6 -45l37 -2l-2 49zM702 1231l72 14l-18 47l-54 -8v-53zM754 129l24 -45h45l-4 45h-65zM846 1284l6 -53h45l-4 51zM905 135l2 -55h45l-10 51z" />
<glyph unicode="J" horiz-adv-x="967" d="M141 543l52 2q0 -44 6 -92l213 77q4 -144 45 -251t168 -107q43 0 80 12q63 150 63 439q0 88 -9 205q-12 133 -29 246q-5 34 -20.5 120.5t-29.5 148.5l-404 -61l-8 49l402 62l-19 86l49 10l21 -88l283 43l8 -49l-281 -43q23 -117 40 -223t32 -258q12 -122 14 -248 q0 -192 -31 -335q-31 -144 -106 -231q-75 -86 -201 -86q-204 0 -269 189q-64 189 -69 383z" />
<glyph unicode="K" horiz-adv-x="1513" d="M127 1405l559 59l4 -47l-119 -12l47 -1372h240v-51h-629v51h101l-45 1339l-152 -14zM645 723v39l457 362q-27 36 -27 93q0 67 46 109q47 42 108 42q75 0 127 -41l49 41l29 -35l-78 -65q-26 29 -57 43q-30 12 -70 12t-75 -29q-34 -28 -34 -77q0 -46 24 -73q24 -28 66 -28 q38 0 63 21t25 51q0 25 -15 41t-38 16q-53 0 -53 -51h-45q0 96 98 96q43 0 71 -30q27 -31 27 -72q0 -53 -39 -85q-41 -32 -94 -32q-44 0 -73 21l-439 -349l621 -397q41 27 84 27q60 0 100 -40q39 -40 39 -100q0 -58 -40 -98q-41 -41 -99 -41q-57 0 -98 41t-41 98q0 44 22 78 z" />
<glyph unicode="L" horiz-adv-x="1102" d="M127 1356l162 51l405 -10v-60l209 -4v-47l-209 6v-141l-114 -479l47 -17v-110l-47 -33l41 -246l-64 -200l485 51l43 182l52 -10l-47 -215l-574 -64l-250 19l33 1333l-154 -49zM326 184l213 2l24 72l-10 68h-227v-142zM330 434h209l-21 111h-188v-111zM334 655h188l33 142 h-219zM338 907h244l32 146l-272 4zM346 1167h299v185l-297 10z" />
<glyph unicode="M" horiz-adv-x="1862" d="M70 -14l69 198l174 15l84 585q4 23 4 58q0 100 -43 202q-43 101 -108 190q-61 83 -123 152l147 150q37 -34 82 -91q49 -64 75 -104q18 -27 82 -134q24 -42 33.5 -57.5t23.5 -40.5t16 -28l143 80l244 -438l510 793q28 -150 44.5 -245.5t36 -218t41.5 -279.5 q18 -126 31 -252t20.5 -244t12.5 -238h135v-39h-573v39h147q2 94 2 107q0 125 -10 264q-10 137 -26 254q-18 122 -37 227q-24 123 -43 199l-400 -619l-364 659l-166 -1091l-111 -94z" />
<glyph unicode="N" horiz-adv-x="1618" d="M70 -70q0 47 35 82t83 35h2q29 83 57 257q27 165 55 412q27 238 42 421q14 190 14 276q0 37 -2 53q63 -99 160 -225q94 -121 219 -254q123 -132 270 -265q77 -69 148 -127t178 -140l146 780q-39 32 -39 82q0 44 31 74q32 30 73 30q43 0 74 -30t31 -74q0 -35 -27 -70 q-28 -34 -72 -34q-18 0 -30 4l-228 -1233q-62 31 -196 135q-114 90 -154 123.5t-132 112.5q-158 136 -275 249q-116 109 -175 178q-16 -168 -48 -370q-31 -201 -72 -373q22 -10 38 -28q15 -17 23 -37q8 -22 8 -44q0 -50 -34 -84t-85 -34q-48 0 -83 35t-35 83z" />
<glyph unicode="O" horiz-adv-x="1649" d="M29 647l192 211l-186 125l254 119l-80 227l303 -80l78 264l96 -198l178 180l180 -233l170 129l-24 -205l16 -12l221 83l-114 -186l14 -16l242 -19l-129 -141l188 -51l-196 -109l217 -102l-213 -133l-9 -29l168 -178l-241 26l151 -169l-286 -13l18 -203l-252 127l-12 -4 l-6 -282l-260 231l-115 -117l-111 240l-166 -47l-12 233l-197 -32l119 227q-13 62 -18 117zM121 676l86 -8q-2 26 -2 28q0 33 12 84zM129 977l119 -78q75 190 250 301l-224 68l70 -191zM186 340l103 20q-25 41 -45 95zM258 670q0 -154 77 -287q40 -67 91.5 -119.5 t117.5 -91.5q134 -78 290 -78q124 0 230 47q107 47 183 128q78 83 120 187t42 214q0 117 -44 223t-123 185t-185 123t-223 44q-155 0 -288 -77q-132 -76 -210 -209t-78 -289zM356 262l11 -115l86 23q-51 40 -97 92zM543 113l65 -138l82 84q-79 20 -147 54zM549 1229 q62 29 104 41l-57 121zM727 1288q47 9 100 9q66 0 136 -15l-105 135zM743 47l175 -164l6 166q-6 0 -50 -3q-39 -4 -55 -4q-38 0 -76 5zM1057 82l127 -70l-15 127q-63 -40 -112 -57zM1085 1243q55 -26 62 -31l14 91zM1229 182l186 4l-84 99q-54 -66 -102 -103zM1241 1147 q25 -22 41 -41l45 76zM1358 1014q27 -41 43 -80l86 72zM1378 356l119 -16l-86 86q-12 -26 -18 -37q-9 -18 -15 -33zM1430 854l14 -72l84 49zM1452 559l111 74l-103 41q0 -51 -8 -115z" />
<glyph unicode="P" horiz-adv-x="1241" d="M137 989l6 383h187l10 86l41 -2l-8 -84h248q267 0 412 -83q143 -84 143 -273q0 -78 -39 -146q-41 -69 -113 -117q-73 -49 -176 -76q-102 -28 -227 -28h-22q-127 0 -243 27l17 -512l327 69v-194l-501 -39v158l133 2l-31 923l25 252h-31zM344 1071l6 -205q146 -32 259 -32 h26q90 0 168 20q74 19 117 61q41 41 41 101q0 66 -36 106q-37 42 -94 58l62 120q-94 35 -313 35h-41h-170z" />
<glyph unicode="Q" horiz-adv-x="1546" d="M92 -188q72 124 120 188q50 65 132 156q-107 95 -165 235q-30 74 -44 149t-14 154q0 187 75 341q73 153 213 245q138 90 322 90q138 0 250 -51q113 -51 195 -145q81 -95 123 -217q42 -123 42 -263q0 -180 -67 -326q-67 -147 -193 -241q89 -89 181 -225l356 248 q-26 -201 -106 -372q-81 -173 -201 -173q-85 0 -126 38q-40 37 -132 150q-92 114 -185 168q-94 55 -247 55q-135 0 -233 -27q-101 -30 -164 -71q-69 -44 -132 -106zM172 694q0 -145 63 -291t190 -240q127 -95 306 -95q105 0 201 40q98 41 180 121q82 79 130 198 q48 117 48 267q0 170 -72 315q-74 145 -202 227q-130 83 -285 83q-120 0 -222 -48q-102 -47 -178 -134q-76 -85 -117 -200q-42 -114 -42 -243zM371 694q0 130 48 227q47 96 131 149q82 52 181 52t181 -52q83 -53 132 -149q48 -97 48 -227q0 -94 -26 -172q-25 -77 -75 -136 q-50 -60 -115 -89q-65 -31 -145 -31q-70 0 -136 29q-68 30 -115 83q-52 55 -80 136q-29 82 -29 180zM422 694q0 -242 182 -346q68 34 118 34q51 0 122 -44q91 39 144 131q52 91 52 225q0 113 -40 199q-40 85 -112 132q-70 46 -157 46t-157 -46t-111 -132q-41 -88 -41 -199z " />
<glyph unicode="R" horiz-adv-x="1573" d="M84 1174q0 50 61 105q62 56 174 96q111 40 261 55l8 69h47l-8 -65q32 2 75 2q213 0 400 -48q188 -48 310 -163q60 -56 91 -132t31 -171q0 -102 -49 -196q-51 -98 -143 -178q-94 -82 -236 -153q-138 -68 -324 -119q35 -88 90 -152q57 -66 121 -101q65 -36 129 -36 q55 0 101 25q-33 5 -58 37q-26 32 -26 74q0 49 34 83t82 34q32 0 59 -15q27 -16 43 -43q15 -27 15 -59q0 -40 -28 -83t-88 -72q-61 -29 -144 -29q-116 0 -217 87q-101 86 -160 223q-60 137 -63 279q134 29 239 70.5t174 95.5q134 105 134 232q0 118 -108 187 q-110 69 -304 79l108 182q-97 12 -213 12q-47 0 -81 -2l-142 -1163l-86 -274q-77 0 -127 46q-51 45 -77 105q-25 57 -25 90l37 115l237 -41l135 1118q-121 -7 -258 -59l27 -92l-31 -176q-27 -13 -69 -13q-48 0 -103 31q-55 30 -55 103zM961 563l67 -151q104 41 207 114 l-94 150q-83 -68 -180 -113zM1071 1188q23 -11 56 -29q31 -17 53 -39l188 78q-115 96 -242 133zM1257 846l170 -121q58 95 58 197q0 41 -6 77l-211 -53v-20q0 -38 -11 -80z" />
<glyph unicode="S" horiz-adv-x="1133" d="M43 -98l8 63l197 311l59 9l-10 -84l-47 -72q57 -63 102 -82l78 80l94 -6l-112 -101q66 -20 170 -20h20l6 141h68l-17 -133q111 16 189 82l-82 96l-25 107l154 -152q43 58 43 140q0 52 -18 98h-238l4 37l211 8q-52 89 -223 207l-115 -127l-67 -12l135 172 q-114 79 -172 133l-60 -45h-137l156 90q-72 86 -72 188q0 35 6 66l-104 39l-31 65l154 -39q32 77 99 120q69 45 157 52l-11 103l60 2l4 -103q126 -3 237 -53l60 111l63 -11l-135 -305l-59 -6l-2 72l51 96q-58 25 -105 35q-50 11 -110 12l4 -119l-41 2l-12 115 q-73 -6 -128 -41q-53 -33 -83 -94l145 -39l-2 -92l-164 59q-4 -28 -4 -47q0 -87 66 -164l123 72l73 6l-157 -119q54 -50 161 -123l103 132l51 4l2 -54l-104 -114q96 -69 154 -124q58 -56 89 -120l181 8l-3 -55h-157q14 -56 14 -98q0 -101 -55 -175l88 -86v-67h-53l-86 100 q-91 -78 -228 -96l-18 -143l-39 -2l6 139h-20q-131 0 -211 31l-60 -52l-39 35l43 45q-49 30 -92 76l-119 -178z" />
<glyph unicode="T" horiz-adv-x="1309" d="M78 948l4 137h49l-43 328h1167l-36 -340l38 -6l-28 -127l-115 27l6 120l51 -6l31 291h-317v-1372h291v-53h-934v53h282v1372h-383l37 -287l53 2l-8 -139h-145zM606 498l12 -133l125 -13l9 160zM606 750l135 4l7 110l-142 27v-141zM614 1227l31 -131l113 4v114z" />
<glyph unicode="U" horiz-adv-x="1384" d="M70 1090l26 219l316 8q-50 -185 -85 -345q-33 -151 -48 -264q-16 -111 -16 -208q0 -10 1 -15v-18l137 92q65 -240 250 -240q32 0 86 9v-230q59 32 120 102t120 188q61 122 106 276l-84 708q32 7 64 7q73 0 123 -38q49 -39 49 -127q-9 -277 -100 -575l34 -332l131 21 l56 -344l-189 -31l-69 588q-42 -116 -88 -207q-47 -95 -107 -165q-58 -70 -135 -111q-76 -42 -170 -42q-84 0 -156 29q-69 28 -122 87q-52 58 -79 147q-28 87 -28 208q0 122 21 260q18 125 61 316zM1063 1190l18 -170l84 -2l21 166z" />
<glyph unicode="V" horiz-adv-x="1440" d="M63 1288v53h566v-53h-342l364 -858l342 866l-129 -8l-4 53l688 45v-51l-215 -14l-528 -1346l-559 1313h-183z" />
<glyph unicode="W" horiz-adv-x="2073" d="M57 1300l305 74l121 -571l-209 -58l181 -641l395 1088q-34 17 -53 48q-21 32 -21 69q0 52 37 89q38 38 90 38q55 0 91 -37t36 -90q0 -78 -67 -115l383 -1118l518 1249l237 2l-141 -242l63 -59l-163 -145l96 -93l-242 -65l66 -59l-170 -86l-269 -646l-428 1250h-14 l-453 -1243z" />
<glyph unicode="X" horiz-adv-x="1733" d="M84 1163q0 49 34 83t85 34q40 0 71 -27q94 64 170 64q96 0 166 -52q69 -52 121 -127q53 -75 99 -138q46 -64 85 -64q43 0 94 67q57 76 102 139q50 71 120 124q69 51 164 51q73 0 168 -62q20 11 41 11q38 0 66 -28t28 -67q0 -36 -28 -64t-66 -28q-37 0 -65 28t-28 64 q0 22 15 50q-72 45 -131 45q-72 0 -151 -59q-80 -60 -156 -190q-78 -131 -140 -325q29 -85 91 -195q36 -64 63 -104.5t77 -110.5q78 -105 153 -170q76 -67 134 -67q71 0 121 37q-33 33 -33 84q0 49 34 83q33 34 83 34t84 -34q33 -34 33 -83t-33 -84q-35 -35 -84 -35 q-18 0 -35 6q-39 -32 -77 -46q-36 -13 -93 -13q-85 0 -151 54q-67 54 -150 159q-86 107 -135 155q-53 50 -115 50q-57 0 -106 -47q-46 -45 -130 -153q-83 -108 -151 -162q-71 -56 -155 -56q-70 0 -122 28q-53 27 -83 107q-27 14 -41 38q-16 25 -16 54q0 43 31 74 q30 31 71 31q43 0 73 -30q29 -32 29 -75q0 -36 -26 -67q-25 -30 -64 -33q43 -76 148 -76q60 0 136 67q37 31 76 75t78 96q76 102 139 216q58 103 89 193q-61 192 -139 325q-77 130 -156 190q-80 59 -152 59q-63 0 -137 -49q12 -25 12 -54q0 -49 -34 -83q-34 -36 -82 -36 q-49 0 -84 35t-35 84z" />
<glyph unicode="Y" horiz-adv-x="1438" d="M78 1341q84 34 156 34q78 0 127 -42q48 -43 53 -127q13 -173 27 -280q14 -108 45 -220q32 -114 91 -190q58 -76 148 -76q89 0 154 77q62 75 100 191q35 104 53 199q11 58 47 283q11 72 51 121t119 49q83 0 197 -60l-76 -237l-153 10q-47 0 -79 -24q-31 -23 -40 -68 q-42 -201 -67 -277q-30 -89 -62 -147v-541l252 9v-50l-748 -26l-2 51l176 6l-41 420q-44 28 -84 83q-39 50 -77 165q-38 113 -60 287q-14 86 -102 86l-146 -7zM672 229l82 -43l-80 -61l119 -51l127 51l-56 61l62 60l-68 37l62 57l-123 27l-117 -33l59 -64zM731 231l66 29 l73 -22l-59 -35zM739 319l49 23l68 -16l-59 -43zM741 133l66 43l63 -41l-77 -24z" />
<glyph unicode="Z" horiz-adv-x="1309" d="M57 -20l371 444q-18 18 -18 51q0 32 23 55t56 23q23 0 37 -8l88 104q-16 20 -16 49q0 34 25 56q23 22 55 22q19 0 35 -8l82 98q-11 17 -11 37q0 34 25 56q23 22 55 22q15 0 23 -2l284 344q-141 -35 -514 -39v-266q0 -88 -13 -133q-14 -47 -45 -65q-33 -19 -95 -21 l-273 -4l17 563q102 -26 390 -26q96 0 208 5q107 5 183 13q79 7 159 23q70 13 121 34l-379 -459q14 -22 14 -45q0 -33 -23 -56q-24 -24 -57 -24q-17 0 -33 8l-81 -98q8 -21 8 -35q0 -33 -23 -56q-24 -24 -57 -24q-1 1 -4.5 1.5t-6.5 0.5q-5 1 -10 1l-96 -115q6 -15 6 -31 q0 -31 -23 -56q-22 -24 -55 -24q-10 0 -18 2l-309 -374l674 -29l36 319l437 -10l-9 -383z" />
<glyph unicode="[" horiz-adv-x="944" d="M340 1843l231 -76l277 -20l72 -55l-29 -72l-391 51l-29 -375l29 -1554l131 27l67 -50l197 111l-166 -195l-364 -92v111l38 72l-18 1974z" />
<glyph unicode="\" horiz-adv-x="1038" d="M-63 1739l6 76l80 -9l354 -602l86 -313l379 -838l250 -348l22 -154l-53 -10l-549 889l-152 535z" />
<glyph unicode="]" horiz-adv-x="944" d="M25 -303l28 72l391 -52l29 373l-29 1555l-133 -25l-67 47l-195 -108l166 192l365 94v-110l-39 -72l16 -1974l47 -146l-233 76l-275 23z" />
<glyph unicode="^" d="M68 0v1366h684v-1366h-684zM82 14h655v1338h-655v-1338z" />
<glyph unicode="_" horiz-adv-x="1024" d="M0 -272h1024v-93h-1024v93z" />
<glyph unicode="`" horiz-adv-x="825" d="M141 1288l21 21l61 -15l119 23l270 -103l50 -2l22 -22l-80 -148l-127 82z" />
<glyph unicode="a" horiz-adv-x="817" d="M43 645q0 43 37 70q-2 14 -2 31q0 62 37 111q38 50 97 78t120 28q182 0 211 -191h112l19 -500l-109 -2q23 -173 125 -213q0 25 18 47q17 21 50 21q29 0 48 -19t19 -49q0 -28 -19 -47q-20 -20 -48 -20q-34 0 -51 24q-99 22 -140 103q-46 -27 -117 -45q-69 -19 -142 -19 q-97 0 -159 41q-63 41 -63 131q0 98 76 146q76 47 166 61q90 12 188 12q1 24 1 101q0 146 -15 225q-17 81 -56 116q-40 36 -114 36q-73 0 -143 -46q-71 -47 -71 -126q0 -15 1 -19q42 0 69 -21t27 -65q0 -36 -24 -62q-26 -26 -62 -26q-34 0 -60 27q-26 26 -26 61zM125 225 q0 -70 51 -102q50 -32 129 -32q64 0 131 18q69 18 115 45q-32 67 -35 252q-208 -1 -300 -48q-91 -48 -91 -133z" />
<glyph unicode="b" horiz-adv-x="915" d="M20 1149l66 360l160 -34q-50 -209 -80 -428q-29 -214 -29 -377q0 -234 62 -387l100 100q63 -143 173 -143q33 0 72 17q37 16 63 44q24 24 34 55l139 -92q25 56 25 125q0 83 -34 144q-35 61 -84 98q-51 37 -101 51q10 -21 10 -45q0 -40 -29 -69t-69 -29t-71 29 q-30 29 -30 69q0 42 30 70q29 28 71 28q72 0 138 -27q65 -27 112 -74q44 -46 71 -110q25 -62 25 -135q0 -113 -53 -193q-54 -80 -136 -120q-84 -41 -168 -41q-134 0 -262 119q-127 118 -129 514v27q0 185 39 423z" />
<glyph unicode="c" horiz-adv-x="887" d="M0 113l225 161q-13 32 -24 93l-158 51l156 86q3 51 14 94l-107 27l11 41l106 -27q42 148 137 237t236 89q85 0 138 -32q51 -32 74 -83q21 -49 21 -105q0 -39 -28 -66q-28 -28 -68 -28q-38 0 -66 28t-28 66q0 39 28 67t66 28q22 0 35 -9q-38 89 -172 89q-155 0 -246 -121 q-53 -70 -82 -172l158 -41l-182 -99q-2 -24 -2 -55q0 -25 2 -41l141 -45l-109 -78q8 -12 12 -19q3 -5 5 -9t5 -9q8 -12 11 -16l158 35l-27 -129q83 -33 189 -33q37 0 85 5q46 5 81 13q40 10 49 13q8 2 26 6l9 -45q-12 -1 -29.5 -5.5t-29.5 -7.5q-30 -8 -86 -16 q-53 -8 -105 -8q-108 0 -199 35l-24 -121l-39 8l28 127q-63 32 -106 80zM131 428l66 -20v24v31zM160 184l102 23q-15 18 -22 35zM248 532l71 39l-61 17q-7 -19 -10 -56zM250 350q3 -28 12 -49l41 31zM338 184q30 -27 68 -47l14 64z" />
<glyph unicode="d" horiz-adv-x="1073" d="M70 399q0 200 90 300t227 100q39 0 87 -13q50 -14 77 -32l-23 -33q-21 16 -63 28q-42 11 -78 11q-118 0 -186 -80l180 -86q-66 -91 -66 -202q0 -92 50 -175l-162 -111q71 -67 184 -67q68 0 140 48q72 49 124 128q51 77 68 170l-74 866q-4 33 -4 62q0 55 21 89t77 34 q95 0 95 -127v-21q0 -3 -0.5 -8.5t-1.5 -9.5q-1 -8 -1 -21l-73 -837q11 -168 39 -268q29 -101 110 -101q-49 31 -49 90q0 46 33 77q32 30 76 30t75 -31t31 -76q0 -60 -50 -96q-49 -37 -116 -37q-92 0 -127 83q-36 86 -49 210q-25 -76 -81 -144q-54 -67 -125 -109 q-70 -40 -138 -40q-95 0 -166 44q-71 43 -111 133q-40 87 -40 222zM682 1176l10 -113h88l8 113h-106zM705 885l12 -142h37l14 142h-63z" />
<glyph unicode="e" horiz-adv-x="866" d="M70 397q0 205 90 326q88 121 256 121q87 0 154 -30t112 -84q44 -53 67 -122q21 -69 21 -149q0 -54 -6 -101h-649q4 -103 32 -180q26 -76 78 -125q51 -50 130 -76q80 -26 184 -26q207 0 299 65l26 -36q-38 -27 -118 -50q-82 -24 -207 -24q-146 0 -242 44q-94 43 -144 118 q-49 73 -66 154q-17 82 -17 175zM137 580h572q-27 102 -102 160q-77 59 -191 59q-67 0 -122 -23q-55 -24 -95 -73q-39 -48 -62 -123z" />
<glyph unicode="f" horiz-adv-x="772" d="M41 686l35 53q19 31 43 31q16 0 39 -14l71 -45q-8 171 -8 247q0 194 42 297q41 104 104 137t145 33q48 0 92 -10q45 -10 139 -39q17 6 33 6q46 0 77 -31q32 -32 32 -77q0 -46 -32 -76q-32 -31 -77 -31q-44 0 -75 31t-31 76q0 38 28 76q-84 25 -113 30q-31 6 -73 6 q-71 0 -111 -20q-38 -19 -69 -61q-34 -50 -52 -134q-18 -82 -18 -213q0 -139 8 -241l97 59q15 12 30 12q16 0 25 -16l59 -96q9 -15 21 -15t18 13l72 121q20 30 59 30h115v-41h-115q-18 0 -26 -12l-68 -110q-23 -38 -58 -38q-33 0 -57 38l-45 69q-3 7 -11 7q-6 0 -11 -3 l-101 -63q0 -28 17.5 -178t50.5 -414l254 26l25 -219l-515 -49l-38 213l235 25q-36 260 -44 335q-13 104 -26 251l-96 61q-11 8 -18 8q-10 0 -19 -16l-28 -45z" />
<glyph unicode="g" horiz-adv-x="934" d="M20 332l99 22q0 58 8 116q7 49 37 128l-84 25l10 30l84 -28q35 80 78 139l-78 35l8 32l97 -32q26 36 94 96l-41 72l24 18l50 -72q48 36 118 48q13 40 60 40q26 0 45 -18q18 -19 18 -45q0 -25 -18 -45q-18 -19 -45 -19q-47 0 -60 46q-46 -7 -96 -37l55 -82l-41 -25l-49 84 q-39 -30 -82 -82l70 -57l-21 -33l-73 57q-44 -55 -76 -133l94 -30l-10 -25l-94 29q-41 -111 -41 -198v-23l94 22l10 -43l-104 -20q8 -79 33 -123q25 -43 79 -76l64 104l37 -18l-60 -96q26 -3 49 -3q54 0 99 15q46 15 86 45l-55 100l28 21l58 -94q140 119 170 395l-27 100 q-39 0 -62 23q-22 22 -22 55q0 32 23 55q23 21 53 21q31 0 53 -22t22 -54q0 -40 -32 -63q21 -63 40 -142q20 -89 32 -156q14 -82 21 -151q7 -66 7 -131q0 -101 -24 -217q-25 -116 -99 -204q-75 -89 -211 -89q-96 0 -167 45q-72 43 -72 121q0 40 27 66q28 26 65 26 q40 0 66 -26t26 -66q0 -31 -17 -54q-16 -23 -44 -34q32 -39 122 -39q78 0 144 51q64 51 105 158q40 105 40 262q0 133 -47 350q-16 -94 -60 -177q-44 -81 -112 -140l53 -88l-37 -27l-49 90q-97 -66 -200 -66q-33 0 -74 9l-60 -96l-36 18l55 90q-117 61 -127 223l-98 -18z " />
<glyph unicode="h" horiz-adv-x="1053" d="M139 34q0 85 43 238l-6 50t-6 49q-6 54 -12 110q-7 69 -8 121q-3 60 -3 143q0 217 24 377t84 253q59 93 161 93q62 0 127 -34q21 10 47 10q45 0 77 -32q31 -31 31 -79q0 -47 -31 -78q-32 -32 -77 -32q-47 0 -79 32t-32 78q0 42 29 74q-48 20 -90 20q-53 0 -85 -21 q-33 -24 -61 -79l58 -41l-21 -192l-102 -19l-10 -86l88 -35l-9 -206l-88 -3l5 -170l77 -40q32 75 76 138q45 64 109 106q63 42 135 42q63 0 107 -28q47 -29 74 -83q28 -55 42 -139l170 23l-88 -531l-158 -16q44 235 44 394q0 339 -191 339q-89 0 -161 -75q-73 -76 -122 -188 q-51 -118 -86 -247q6 -19 10.5 -33t12.5 -40q10 -34 22 -85q9 -45 9 -84q0 -94 -68 -94t-68 100zM177 39q0 -64 30 -64q32 0 32 54q0 55 -36 164q-26 -101 -26 -154z" />
<glyph unicode="i" horiz-adv-x="551" d="M0 8l203 10l63 580q5 58 5 82q0 95 -31 145l-217 -32l-5 32l246 37q32 -63 37 -100q28 -1 43 -18q14 -19 14 -43q0 -23 -15 -43q-16 -19 -40 -19l-4 -64q26 -7 43 -30q15 -22 15 -45q0 -27 -19 -49t-49 -25l-4 -47q50 -39 50 -94q0 -66 -75 -92l-16 -173l221 9l2 -37 l-227 -12l-7 -54l-43 -2l9 56l-197 -11zM76 1208v33l102 2q3 7 5.5 13t2.5 8l-45 98l35 -4l43 -60q23 15 51 15l4 123l31 -6v-121q7 -5 21 -13l43 45l47 5l-62 -80q12 -22 13 -31l141 -4l-2 -31l-144 -10q0 -7 -6 -16l97 -93l-33 -20l-98 76q-8 -8 -27 -13l-23 -118l-30 2 l16 114q-23 5 -33 13l-114 -58l12 37l70 49q-14 22 -17 45h-100z" />
<glyph unicode="j" horiz-adv-x="551" d="M-57 -119q0 67 42 159q18 41 48 86.5t67 85.5q70 77 164 122q0 102 -9 220q-13 145 -26 249l-172 -27l-8 35l178 25l-6 45l43 6l6 -45l152 22l6 -33l-156 -22q31 -268 35 -457q52 20 115 20q24 0 31 -1l34 39l80 -9l-20 -104l-98 31q-26 2 -33 2q-58 0 -109 -25 q0 -573 -237 -573q-66 0 -96 46q-31 44 -31 103zM-25 1204q44 -18 84 -18q33 0 70 14l66 164l26 -92q23 -77 37 -97q15 -23 51 -29q34 -7 170 -18l-172 -77l29 -123l-123 69q-117 -14 -229 -129l65 187zM-14 -119q0 -42 16 -68q17 -29 45 -36l-57 153q-4 -28 -4 -49zM23 23 l88 -242q33 11 53 35l-98 282q-18 -24 -43 -75zM117 166l92 -277q13 30 29 97l-66 235q-27 -24 -55 -55zM221 260l37 -133q1 17 2.5 36t1.5 31l2 45v48q-4 -2 -14 -8q-6 -3 -29 -19z" />
<glyph unicode="k" horiz-adv-x="989" d="M35 0h123l49 1415l-154 -51l-12 37l166 57l4 74h37l-2 -62l135 48l12 -37l-149 -51l-33 -1004l285 192l12 187l313 164l33 -224l-149 -40l-453 -295l536 -316q-3 9 -3 21q0 43 31 78q30 36 87 36q32 0 58 -16q26 -17 42 -43q15 -27 15 -57q0 -51 -36 -83q-37 -31 -83 -31 q-28 0 -47 13l-641 379l-12 -391h147v-188l-307 16z" />
<glyph unicode="l" horiz-adv-x="578" d="M0 1219l2 38q76 0 152 40q75 38 131 105q54 64 71 138l39 -8q-3 -21 -56 -300q-45 -232 -79 -417q-24 -136 -49 -311q-23 -164 -23 -250q0 -128 46 -190q45 -64 141 -64q68 0 114 49t46 135q0 43 -15 77q-15 33 -43 52t-67 19q-33 0 -59 -15q-27 -15 -41 -41 q-15 -27 -15 -63q0 -45 15 -65q14 -21 50 -21q21 0 38 17q16 16 16 36q0 44 -47 70l18 39q72 -39 72 -109q0 -41 -27 -68q-28 -28 -70 -28q-108 0 -108 129q0 70 42 116t116 46q81 0 125 -53q43 -53 43 -138q0 -92 -53 -160q-54 -67 -150 -67q-230 0 -230 297q0 97 21 251 q23 167 49 311q31 178 61 329q27 137 46 237q-58 -76 -141 -119q-86 -44 -181 -44z" />
<glyph unicode="m" horiz-adv-x="1368" d="M-43 803v196q40 8 87 8q87 0 153 -26q65 -26 65 -68l-12 -260q21 94 80 170q59 74 145 74q62 0 105 -49q43 -50 59 -137q149 79 227 111q81 34 164 34q101 0 142 -68q40 -67 40 -194q0 -79 -11 -165q-6 -46 -34 -228l201 57l-49 -258l-248 -88q63 341 79 460 q19 139 19 222q0 115 -31 167t-108 52q-46 0 -115 -21q-67 -22 -127 -51l-4 -690l-186 -67l10 598q0 61 -12 122q-12 63 -42 106q-30 44 -79 44q-67 0 -120 -69t-84 -172q-30 -99 -38 -201l-18 -355l-43 2l31 545q1 7 1 31q0 83 -29 118q-28 34 -68 40q-52 6 -150 10z" />
<glyph unicode="n" horiz-adv-x="1110" d="M-43 815q0 32 22 54q23 23 50 26q56 41 110 41q81 0 124 -69q43 -70 46 -197q33 48 80 99.5t101 98.5q108 93 223 93q250 0 250 -375q-1 -239 -105 -631l-143 -23l30 461l162 4q8 66 13 187q0 160 -45 248q-46 88 -162 88q-48 0 -103 -28t-114 -78q-54 -46 -103 -106 q-43 -54 -78 -118q1 -29 1 -123q0 -174 -17 -253q-17 -77 -68 -77q-55 0 -55 111q0 141 98 364q0 121 -32 205q-33 82 -99 82q-35 0 -63 -16q39 -27 39 -68q0 -31 -23 -56q-22 -24 -57 -24q-34 0 -58 24t-24 56z" />
<glyph unicode="o" horiz-adv-x="1026" d="M70 453q0 97 32 185q32 87 90 153t140 103q81 36 182 36q134 0 234 -63q100 -64 154 -173t54 -241q0 -130 -54 -240q-56 -111 -155 -173q-100 -63 -233 -63q-101 0 -182 36q-83 36 -141 103q-59 68 -90 154q-31 84 -31 183zM111 453q0 -84 26 -164q26 -79 77 -139 q54 -63 129 -97q78 -35 171 -35q115 0 207 53q89 52 142 152q52 98 52 230q0 94 -28 174q-29 82 -81 140q-53 59 -125 90q-75 32 -167 32q-111 0 -205 -53q-92 -54 -145 -153q-53 -100 -53 -230z" />
<glyph unicode="p" horiz-adv-x="1067" d="M-14 840q0 32 23 55t57 23q24 0 43 -12q19 -13 28 -34q42 2 48 2q68 0 105 -28t37 -112q0 -20 -1 -27l-25 -314l211 508l27 -106l184 157l6 -153l248 20l-119 -125l197 -155l-142 -13l131 -252l-137 11l17 -219l-103 75l-196 -284l-80 131l-115 -47l-49 178 q47 -90 164 -90q109 0 185 62t113 162q38 102 38 210q0 128 -66 209q-68 80 -168 80q-97 0 -156 -62q-56 -61 -104 -176l-94 -221l-43 -561l235 20l-45 -211h-409l4 174l174 15l76 979q1 9 1 34q0 55 -22 74q-22 18 -91 18h-16q-4 -1 -14 -1q-1 -31 -24 -52q-22 -22 -53 -22 q-34 0 -57 24q-23 25 -23 56z" />
<glyph unicode="q" horiz-adv-x="870" d="M70 438q0 90 24 181q22 89 73 174q50 83 129 132q80 50 181 50q57 0 113 -19l-4 209l141 -20l8 -324l-37 -16q-62 131 -221 131q-95 0 -180 -62q-85 -61 -135 -175q-51 -112 -51 -261q0 -368 262 -368q107 0 190 82v481q0 46 26 75q25 28 59 28q41 0 73 -44 q31 -44 31 -133q0 -57 -10 -110q-11 -60 -28 -111q-18 -55 -48 -108q-32 -57 -64 -91v-260l283 -22l-23 -68l-299 -174v485q-85 -69 -190 -69q-170 0 -236 123q-67 121 -67 284zM602 197q78 104 103 270l-103 -6v-264zM602 535l111 -5v39l-111 17v-51zM602 631l100 4 q-9 33 -30 51q-13 10 -27 10q-18 0 -30 -16q-13 -16 -13 -49z" />
<glyph unicode="r" horiz-adv-x="772" d="M-16 981h274l10 -506q17 49 54 151q37 100 68 163q33 68 77 112q43 43 94 43q37 0 66 -17t46 -46t17 -66q0 -55 -37 -92t-92 -37q-47 0 -82 29q-36 29 -45 71q-18 -10 -73 -158q-60 -160 -91 -274l4 -223q34 -7 56 -34q22 -26 22 -62q0 -39 -28 -67q-29 -29 -68 -29 t-68 29q-30 28 -30 67q0 37 24 64q23 26 58 32l-15 690l-239 6zM471 815q0 -36 27 -62q26 -26 63 -26t63 26q25 25 25 62q0 25 -11 45q-12 20 -32 32q-20 11 -45 11q-38 0 -63 -25q-27 -25 -27 -63zM522 786l23 60l59 -6l-24 -78z" />
<glyph unicode="s" horiz-adv-x="866" d="M29 162l184 151l23 -28l-78 -64q11 -37 45 -75q36 -39 84 -52l16 86l35 6l-19 -96q65 0 105 13q44 14 63 29q25 20 41 38l-94 29l-6 41l121 -41q35 55 35 121q0 30 -6 51l-84 -15v33l73 14q-18 43 -50 77q-26 26 -101 91l-82 -45l-29 29l84 41q-82 78 -100 166l-78 6 l-23 29l97 -2q-3 14 -3 31q0 106 80 169l-51 66l-4 33l33 -4l53 -72q85 47 187 47q8 0 34 -2l4 102l31 -106q33 -4 74 -22q37 -16 61 -42l62 95l35 -23l-146 -219l-37 20l64 93q-39 42 -113 59l-39 -72l2 76q-14 2 -38 2q-91 0 -158 -41l71 -100l-30 -17l-72 97 q-63 -52 -63 -138q0 -18 2 -32l94 -2l2 -37l-90 4q15 -66 98 -146l98 48l15 -27l-88 -45q6 0 44 -35q35 -34 70 -78q34 -43 41 -69l117 20l-2 -37l-105 -16q6 -24 6 -58q0 -75 -34 -131l86 -28l4 -37l-109 35q-85 -105 -260 -105l-16 -90l-33 4l19 90q-106 26 -156 138 l-68 -56z" />
<glyph unicode="t" horiz-adv-x="748" d="M14 872l252 -2q41 194 84 365l39 -10q-42 -151 -82 -355l309 -4l-8 -245l-342 10q-41 -257 -41 -383q0 -285 209 -285q59 0 117 39q57 39 93 114t36 177q0 48 -14 95q-13 45 -39 69l28 28q25 -21 44 -71q20 -54 20 -121q0 -73 -18 -136q-20 -66 -56 -118q-38 -54 -91 -84 q-55 -31 -120 -31q-248 0 -248 320q0 23 2 63q1 20 8 86q8 71 13 112q8 68 16 126l-188 4z" />
<glyph unicode="u" horiz-adv-x="1044" d="M84 874q0 44 30 75q30 32 81 32q31 0 56 -14q24 -15 38 -41q14 -28 14 -60q0 -54 -19 -120q-24 -83 -53 -165q-35 -101 -54 -172q-19 -72 -19 -139q0 -116 46 -177q47 -62 152 -62q69 0 133 41q62 40 121 129q43 64 88 176q-57 335 -57 471q0 46 22 80q21 35 72 35 q62 0 81 -45q20 -46 20 -134q0 -19 -10 -82q-11 -67 -33 -155q-24 -98 -56 -176l43 -230q9 -51 22 -78q14 -29 31 -42q16 -13 44 -13q29 0 60 19t77 71l30 -24q-37 -48 -77 -76q-41 -29 -90 -29q-60 0 -90 42q-29 41 -46 122l-32 170q-137 -311 -353 -311q-237 0 -237 272 q0 71 18 144q18 72 57 189q40 120 54 169q14 54 14 100q0 38 -19 57t-48 19q-70 0 -70 -68q0 -27 13 -40t46 -13v-41q-100 0 -100 94zM592 397v29h29v-29h-29zM596 770v29h31v-29h-31zM621 598v31h30v-31h-30zM682 834l109 26q-5 37 -17 49q-13 13 -39 13q-53 0 -53 -74v-14 zM686 754q1 -19 10 -86l84 4q3 13 5 26t4 25q5 26 6 45zM692 993v31h29v-31h-29zM709 571q15 -108 15.5 -108t11.5 37q6 21 10 34t10 33zM813 379v31h27v-31h-27zM842 592v29h30v-29h-30zM872 821v31h27v-31h-27z" />
<glyph unicode="v" horiz-adv-x="1018" d="M-35 932h395v-39h-225l346 -862l330 778q-39 27 -39 76q0 41 27 66q28 26 65 26q40 0 66 -26t26 -66q0 -37 -26 -65q-25 -27 -66 -27q-8 0 -16 2l-60 -142l111 -51l-203 -448l-98 41l-119 -267l-262 658l-115 -31z" />
<glyph unicode="w" horiz-adv-x="1389" d="M29 719l20 182l207 92l61 -18q-22 -80 -44.5 -175t-46.5 -226q-42 -229 -42 -326q0 -209 158 -209q124 0 266 186q-39 146 -39 361q0 233 39 342q38 110 121 110q141 0 141 -241q0 -101 -26 -197q-27 -95 -75 -190q-51 -97 -114 -191q31 -95 76 -143q47 -51 115 -51 q100 0 176 85q77 85 119 212q41 129 41 247q0 100 -33 214q-34 116 -76 182l172 36q7 -80 44 -188q37 -109 85 -166l-151 -51v-27q0 -121 -34 -232t-85 -190q-106 -163 -258 -163t-223 194q-70 -86 -144 -133t-137 -47q-97 0 -148 66q-51 65 -51 184q0 73 29 258 q29 182 35 190zM610 586q0 -184 31 -318q52 73 96 167q41 87 68 186q24 95 24 176q0 94 -25 147q-26 53 -75 53q-72 0 -95 -126q-24 -126 -24 -285zM667 710q0 55 46 156l45 4q24 -55 24 -107q0 -50 -19 -81q-19 -33 -42 -33q-54 0 -54 61z" />
<glyph unicode="x" horiz-adv-x="983" d="M43 106l111 123q-2 6 -2 19q0 40 26 66t64 26h10l231 252l-133 180q-15 -6 -39 -6q-44 0 -76 32t-32 76q0 39 22 70l-57 74l39 29l53 -76q21 12 51 12q45 0 77 -31q32 -32 32 -78q0 -45 -33 -77l127 -172l213 233q-29 32 -29 68q0 41 28 69q27 27 67 27q35 0 61 -23 l41 45l35 -30l-49 -53q6 -16 6 -35q0 -39 -28 -67t-66 -28q-8 0 -25 5l-227 -248l260 -355h18q38 0 64 -25q26 -26 26 -65q0 -22 -10 -43l41 -57l-37 -25l-37 50q-19 -15 -47 -15q-38 0 -64 26t-26 64q0 44 31 68l-250 344l-213 -233q35 -33 35 -74q0 -38 -26 -64t-64 -26 q-37 0 -66 30l-96 -106z" />
<glyph unicode="y" horiz-adv-x="1077" d="M70 840l24 168l223 -4q-43 -172 -59 -259l186 -14q-3 -18 -7 -39t-7 -36q-3 -17 -11 -70q-4 -29 -4 -64q0 -137 102 -137q21 0 38 4l80 -110q56 69 103 201q20 56 40 129t34 148q28 149 32 269l147 6l2 -377l-129 2q1 -29 2.5 -61.5t5.5 -113.5q3 -68 8 -171 q3 -58 3 -140v-28q-5 -219 -66 -331q-62 -113 -219 -113q-54 0 -113 8l-176 -53l31 176l-14 82l86 -21l118 9l-32 -117l32 -41q41 -6 72 -6q135 0 187 112q52 110 55 316v28q0 79 -3 140q-3 51 -4.5 92.5t-3.5 68.5q-7 116 -8 154q-137 -536 -391 -536q-86 0 -143 33 q-57 32 -86 101t-29 175t22 234q20 127 68 311l-137 4l-18 -135z" />
<glyph unicode="z" horiz-adv-x="872" d="M49 -20l258 342q-24 24 -24 61q0 41 27 66q28 26 65 26q12 0 39 -8l301 399h-314l5 -233l-306 8l-16 262h711l-346 -467q18 -25 18 -53q0 -37 -26 -65q-25 -27 -66 -27q-19 0 -31 6l-205 -274l752 49l10 -146l-397 -32l-10 114z" />
<glyph unicode="{" d="M68 0v1366h684v-1366h-684zM82 14h655v1338h-655v-1338z" />
<glyph unicode="|" d="M68 0v1366h684v-1366h-684zM82 14h655v1338h-655v-1338z" />
<glyph unicode="}" d="M68 0v1366h684v-1366h-684zM82 14h655v1338h-655v-1338z" />
<glyph unicode="~" d="M68 0v1366h684v-1366h-684zM82 14h655v1338h-655v-1338z" />
<glyph unicode="&#xa1;" horiz-adv-x="657" d="M172 1309q0 57 40 97t99 40q58 0 98 -40t40 -97q0 -59 -40 -99q-41 -41 -98 -41q-58 0 -99 41q-40 40 -40 99zM195 160q0 30 30 49l80 51l-80 143q-11 20 -11 38q0 30 34 55l84 67l-84 123l53 105l-35 59l4 154h66l-12 -158l20 -41l-53 -98l82 -111l-13 -78l-94 -74 l72 -133q17 -32 17 -53q0 -32 -40 -59l-63 -41l61 -103l-6 -47l-55 -74l20 97l-63 90q-14 20 -14 39z" />
<glyph unicode="&#xa2;" horiz-adv-x="659" d="M70 471q0 121 54 182q52 61 126 76l29 47l-21 70l16 125l72 -21l-2 -59q-21 0 -36 -19t-15 -43q0 -44 37 -57l-27 -37q57 0 180 -18l113 -35l-4 -59l-43 -31q-62 8 -80 16q-20 9 -20 31q0 -5 2 41q-87 14 -162 14l33 -82q9 -22 9 -37q0 -21 -13 -33q-11 -11 -64 -53 l88 -110l-43 -107q53 0 95 16q44 15 91 58l-59 51l8 17l60 -52l20 5l43 59l-20 -70l67 15l-2 -23l-67 -4l55 -90l-64 63l-47 -81l8 63q-91 -66 -184 -66h-33l19 -65l-68 -98l27 -50l78 -24l-4 -64l-46 -14l-43 10l-4 60l-34 26l-15 66l70 88l-21 72q-72 17 -115 70 q-44 53 -44 161zM111 471q0 -138 82 -178l55 55l-82 146l55 118l-14 60q-96 -52 -96 -201zM184 498l60 -60l-25 66l78 69l-33 80l-43 33l37 -74l-14 -45zM246 401l24 -57l-22 -78l51 66l-18 84z" />
<glyph unicode="&#xa3;" horiz-adv-x="1163" d="M141 80q0 55 37 98q36 43 115 43q66 0 129 -24q1 6 1 26v27q-1 6 -1 20q0 70 -16 211h-242v78h135v92h-137v72h219l-2 92v33q0 145 54 239q54 93 210 93q97 0 153 -35q54 -34 54 -98q0 -46 -33 -79q-34 -34 -82 -34q-44 0 -78 34t-34 79q0 48 34 79q-21 3 -40 3 q-91 0 -139 -67q-49 -67 -49 -216q0 -9 1 -13v-18l2 -92h328v-72h-82v-92h65v-78h-282q16 -124 16 -237v-42q0 -8 -0.5 -18t-1.5 -16q24 -15 87 -65q58 -47 105 -70q46 -23 101 -23q44 0 75 21q33 22 70 62q34 37 63 59q26 18 60 18q49 0 99 -25v-106q-44 32 -63 44 q-25 15 -50 15q-33 0 -83 -48q-47 -46 -77 -69q-28 -22 -90 -22q-49 0 -93 14q-43 13 -75 33q-35 22 -73 54q-34 29 -64 51q-17 -83 -65 -122q-49 -42 -109 -42q-75 0 -113 39q-39 38 -39 94zM193 80q0 -82 100 -82q48 0 82 39q34 38 43 104q-53 29 -125 29q-45 0 -72 -24 q-28 -25 -28 -66zM367 559h96v92h-96v-92zM393 582v39h41v-39h-41zM526 559h95v92h-95v-92zM553 147v41h39v-41h-39zM553 571v39h39v-39h-39zM575 -16h39v-39h-39v39zM672 975h121v121h-121v-121zM721 68v38h41v-38h-41zM733 989v39h39v-39h-39zM823 -72h39v-39h-39v39z M868 170v39h39v-39h-39zM1016 12v39h39v-39h-39z" />
<glyph unicode="&#xa4;" d="M68 0v1366h684v-1366h-684zM82 14h655v1338h-655v-1338z" />
<glyph unicode="&#xa5;" horiz-adv-x="1270" d="M102 1034q52 115 159 115q21 0 42 -4q55 -11 62 -125q33 -543 284 -543q129 0 183 119q53 120 86 330l-109 -6l133 104l-86 80l8 24l115 -57l57 117l6 -139l146 47q-107 -65 -129 -115l94 -94l-106 18q-43 0 -69 -20t-32 -58q-22 -156 -67 -243q-43 -84 -99 -117v-61h129 v-66h-129v-72h117v-65h-117v-193l160 -10v-41l-309 10l-289 -30l-6 43l172 18v203h-156v65h156v72h-143v66h143v61q-32 18 -65 66q-32 44 -62 122q-27 69 -41 156q-6 44 -16 64q-11 21 -37 24l-117 12zM184 1098l27 -142l117 56l-35 102zM225 1022v41l37 22l19 -55zM553 0 l98 10h84l-20 178l14 246h-70l-102 8l6 -127zM598 109l70 8l10 -62l-60 -8zM604 268l76 -8l-6 -78l-68 17zM606 387l53 10l29 -32l-59 -29zM631 242l4 -29l24 -10v37z" />
<glyph unicode="&#xa7;" d="M68 0v1366h684v-1366h-684zM82 14h655v1338h-655v-1338z" />
<glyph unicode="&#xa8;" horiz-adv-x="690" d="M166 1104l55 90q48 0 79 -14q29 -14 32 -35q0 -26 -12 -44q-15 -22 -56 -57h-63zM379 1092l76 141l43 -8q37 -7 58 -19q17 -11 17 -41q0 -125 -47 -125l-139 4z" />
<glyph unicode="&#xa9;" d="M68 0v1366h684v-1366h-684zM82 14h655v1338h-655v-1338z" />
<glyph unicode="&#xaa;" d="M68 0v1366h684v-1366h-684zM82 14h655v1338h-655v-1338z" />
<glyph unicode="&#xab;" horiz-adv-x="1063" d="M98 430l228 174l282 289l54 16l-207 -338l-66 -45l-8 -47q-14 0 -23 -13q-10 -13 -10 -28q0 -19 17 -34t51 -15l270 -338v-47h-33l-63 109l-473 270zM467 444q43 34 119 125q77 93 150 196q77 108 110 171l106 -86q-73 -76 -130 -168q-58 -94 -87 -174l328 -426 l-186 -125q-31 68 -79 144q-47 75 -111 155q-63 77 -117 125q-57 50 -103 63z" />
<glyph unicode="&#xac;" d="M68 0v1366h684v-1366h-684zM82 14h655v1338h-655v-1338z" />
<glyph unicode="&#xad;" horiz-adv-x="719" d="M102 471l97 90l28 -8l269 4v33l120 -55l-2 -39l-57 -43h-43v20h-59l-49 -16zM236 532l51 -28l63 8h146l4 25z" />
<glyph unicode="&#xae;" d="M68 0v1366h684v-1366h-684zM82 14h655v1338h-655v-1338z" />
<glyph unicode="&#xaf;" d="M68 0v1366h684v-1366h-684zM82 14h655v1338h-655v-1338z" />
<glyph unicode="&#xb0;" d="M68 0v1366h684v-1366h-684zM82 14h655v1338h-655v-1338z" />
<glyph unicode="&#xb1;" d="M68 0v1366h684v-1366h-684zM82 14h655v1338h-655v-1338z" />
<glyph unicode="&#xb4;" horiz-adv-x="825" d="M141 1190l23 22l49 2l270 103l119 -23l62 15l20 -21l-336 -164l-127 -82z" />
<glyph unicode="&#xb5;" d="M68 0v1366h684v-1366h-684zM82 14h655v1338h-655v-1338z" />
<glyph unicode="&#xb6;" d="M68 0v1366h684v-1366h-684zM82 14h655v1338h-655v-1338z" />
<glyph unicode="&#xb7;" horiz-adv-x="891" d="M123 535l262 161l246 -14l28 -231l-210 -150l-220 -20zM326 494q0 -34 24 -58t58 -24q36 0 60 24t24 58q0 36 -24 60t-60 24q-34 0 -58 -24t-24 -60z" />
<glyph unicode="&#xb8;" d="M68 0v1366h684v-1366h-684zM82 14h655v1338h-655v-1338z" />
<glyph unicode="&#xba;" d="M68 0v1366h684v-1366h-684zM82 14h655v1338h-655v-1338z" />
<glyph unicode="&#xbb;" horiz-adv-x="1063" d="M41 811l186 125q44 -90 117 -198q72 -108 153 -190q80 -82 138 -99q-50 -43 -120 -128q-69 -83 -147 -193q-77 -108 -110 -171l-106 86q72 76 133 174q59 95 84 168zM418 842v47h31l63 -109l473 -270l19 -47l-228 -174l-282 -289l-54 -16l209 338l66 45l8 45q13 0 23 13 q9 12 9 29q0 23 -16 36q-17 14 -53 14z" />
<glyph unicode="&#xbf;" horiz-adv-x="979" d="M88 233l49 95q7 90 68 161l6 134l149 -5l80 54v82l97 6q41 62 41 118q0 34 -17 82t-17 62q0 33 25 61h49q-18 -21 -18 -47q0 -14 16 -65q15 -52 15 -87q0 -64 -39 -130q11 -46 11 -75q0 -69 -56 -69q-31 0 -78 21q-16 -13 -63 -42q-44 -26 -90 -59q-45 -34 -77 -74 q-36 -45 -46 -98l53 -57v-65l-51 -23q12 -46 38 -82l101 -22l12 -62q45 -16 123 -16l45 45l102 -25q55 18 121 62l-139 86l23 43q137 -34 200 -89q61 -55 61 -147q0 -28 -8 -76l-100 146q-43 -27 -71 -41.5t-66 -28.5l-55 -72l-117 46q-60 0 -125 18q-26 -14 -65 -14 q-24 0 -50 8q-24 7 -24 16v80q-39 45 -58 121zM451 1393q0 57 40 97t97 40q59 0 99 -40t40 -97q0 -59 -40 -99q-41 -41 -99 -41q-55 0 -96 41t-41 99z" />
<glyph unicode="&#xc0;" horiz-adv-x="1614" d="M43 -98l45 204l197 -30l473 1145l-135 188l57 29l782 -1098q18 2 20 2q57 0 94 -40q38 -41 38 -103q0 -39 -19 -70t-51 -51q-32 -19 -71 -19q-56 0 -99 41q-43 40 -43 99q0 75 72 123l-146 198l-499 -49l-256 -43l-154 -362l260 -43l-45 -203zM221 193l27 47l45 -21 l-21 -47zM299 346l25 47l47 -22l-23 -45zM344 520l27 47l45 -22l-21 -47zM412 676l26 47l47 -21l-22 -47zM468 1777l21 21l61 -15l119 23l270 -103l50 -2l22 -22l-80 -148l-127 82zM485 842l25 47l47 -23l-22 -45zM561 995l25 45l47 -20l-21 -47zM621 1163l24 47l47 -20 l-20 -47zM625 731q15 -1 73 -1q116 0 205 9t174 29l-274 393z" />
<glyph unicode="&#xc1;" horiz-adv-x="1614" d="M43 -98l45 204l197 -30l473 1145l-135 188l57 29l782 -1098q18 2 20 2q57 0 94 -40q38 -41 38 -103q0 -39 -19 -70t-51 -51q-32 -19 -71 -19q-56 0 -99 41q-43 40 -43 99q0 75 72 123l-146 198l-499 -49l-256 -43l-154 -362l260 -43l-45 -203zM221 193l27 47l45 -21 l-21 -47zM299 346l25 47l47 -22l-23 -45zM344 520l27 47l45 -22l-21 -47zM412 676l26 47l47 -21l-22 -47zM485 842l25 47l47 -23l-22 -45zM561 995l25 45l47 -20l-21 -47zM606 1679l23 22l49 2l270 103l119 -23l62 15l20 -21l-336 -164l-127 -82zM621 1163l24 47l47 -20 l-20 -47zM625 731q15 -1 73 -1q116 0 205 9t174 29l-274 393z" />
<glyph unicode="&#xc2;" horiz-adv-x="1614" d="M43 -98l45 204l197 -30l473 1145l-135 188l57 29l782 -1098q18 2 20 2q57 0 94 -40q38 -41 38 -103q0 -39 -19 -70t-51 -51q-32 -19 -71 -19q-56 0 -99 41q-43 40 -43 99q0 75 72 123l-146 198l-499 -49l-256 -43l-154 -362l260 -43l-45 -203zM221 193l27 47l45 -21 l-21 -47zM299 346l25 47l47 -22l-23 -45zM344 520l27 47l45 -22l-21 -47zM412 676l26 47l47 -21l-22 -47zM485 842l25 47l47 -23l-22 -45zM561 995l25 45l47 -20l-21 -47zM564 1507v30l256 388l142 -385v-46h-27l-14 68l-148 119l-176 -176zM621 1163l24 47l47 -20l-20 -47z M625 731q15 -1 73 -1q116 0 205 9t174 29l-274 393z" />
<glyph unicode="&#xc3;" horiz-adv-x="1614" d="M43 -98l45 204l197 -30l473 1145l-135 188l57 29l782 -1098q18 2 20 2q57 0 94 -40q38 -41 38 -103q0 -39 -19 -70t-51 -51q-32 -19 -71 -19q-56 0 -99 41q-43 40 -43 99q0 75 72 123l-146 198l-499 -49l-256 -43l-154 -362l260 -43l-45 -203zM221 193l27 47l45 -21 l-21 -47zM299 346l25 47l47 -22l-23 -45zM344 520l27 47l45 -22l-21 -47zM412 676l26 47l47 -21l-22 -47zM485 842l25 47l47 -23l-22 -45zM504 1685q1 76 35 132q33 55 96 55q56 0 104 -23q47 -24 81 -54q23 -21 73 -61q38 -30 62 -30q57 0 57 67q0 39 -39 51l27 50 q65 -41 65 -144q-1 -76 -34 -122q-31 -46 -99 -46q-75 0 -119 29q-45 30 -106 83q-61 54 -94 54q-27 0 -43 -19q-17 -20 -17 -44q0 -37 39 -58l-24 -45q-64 34 -64 125zM561 995l25 45l47 -20l-21 -47zM621 1163l24 47l47 -20l-20 -47zM625 731q15 -1 73 -1q116 0 205 9 t174 29l-274 393z" />
<glyph unicode="&#xc4;" horiz-adv-x="1614" d="M43 -98l45 204l197 -30l473 1145l-135 188l57 29l782 -1098q18 2 20 2q57 0 94 -40q38 -41 38 -103q0 -39 -19 -70t-51 -51q-32 -19 -71 -19q-56 0 -99 41q-43 40 -43 99q0 75 72 123l-146 198l-499 -49l-256 -43l-154 -362l260 -43l-45 -203zM221 193l27 47l45 -21 l-21 -47zM299 346l25 47l47 -22l-23 -45zM344 520l27 47l45 -22l-21 -47zM412 676l26 47l47 -21l-22 -47zM485 842l25 47l47 -23l-22 -45zM529 1719l55 90q48 0 79 -14q29 -14 32 -35q0 -26 -12 -44q-15 -22 -56 -57h-63zM561 995l25 45l47 -20l-21 -47zM621 1163l24 47 l47 -20l-20 -47zM625 731q15 -1 73 -1q116 0 205 9t174 29l-274 393zM742 1707l76 141l43 -8q37 -7 58 -19q17 -11 17 -41q0 -125 -47 -125l-139 4z" />
<glyph unicode="&#xc5;" horiz-adv-x="1614" d="M43 -98l45 204l197 -30l473 1145l-135 188l57 29l782 -1098q18 2 20 2q57 0 94 -40q38 -41 38 -103q0 -39 -19 -70t-51 -51q-32 -19 -71 -19q-56 0 -99 41q-43 40 -43 99q0 75 72 123l-146 198l-499 -49l-256 -43l-154 -362l260 -43l-45 -203zM221 193l27 47l45 -21 l-21 -47zM299 346l25 47l47 -22l-23 -45zM344 520l27 47l45 -22l-21 -47zM412 676l26 47l47 -21l-22 -47zM485 842l25 47l47 -23l-22 -45zM561 995l25 45l47 -20l-21 -47zM573 1772q0 57 30 108q28 49 79 80q50 29 106 29q58 0 109 -30q51 -31 79 -80q29 -50 29 -107 q0 -90 -63 -152q-64 -63 -154 -63q-55 0 -105 29q-51 29 -80 79q-30 50 -30 107zM621 1163l24 47l47 -20l-20 -47zM625 731q15 -1 73 -1q116 0 205 9t174 29l-274 393zM635 1772q0 -61 45 -108q44 -48 108 -48q61 0 109 45q47 45 47 111q0 62 -44 109q-43 46 -112 46 q-59 0 -106 -44t-47 -111z" />
<glyph unicode="&#xc6;" horiz-adv-x="2202" d="M98 193l45 22q53 -96 131 -139l306 373h-109l133 167h109l635 791h839v-387l-194 303l-131 -279l-117 304l-129 -299l-119 268l-82 -103v-491h393v-172h-393v-500h527q-37 40 -37 96q0 64 43 107q42 43 104 43q41 0 76 -20q33 -21 54 -54q20 -35 20 -76q0 -62 -45 -104 q-46 -43 -117 -43h-672v449h-569l-334 -412q101 3 233 47l17 -47q-149 -52 -269 -52q-242 0 -348 208zM322 53q27 -9 81 -14l332 410h-96zM774 616h98l496 611v129zM932 616h436v539zM1415 1284l58 72h-58v-72zM1544 1356l72 -189l78 189h-150zM1597 1290v45h45v-45h-45z M1796 1356l72 -197l90 197h-162zM1853 1294v45h45v-45h-45zM2028 1356l110 -185v185h-110zM2087 1288v45l37 -45h-37z" />
<glyph unicode="&#xc7;" horiz-adv-x="1378" d="M-14 926l360 37q60 157 166 254l-72 249l222 -157q102 43 225 43h35l227 254l-68 -285q79 -24 123 -64l156 39q14 -8 23 -33q8 -27 8 -53q0 -63 -36 -128q-37 -66 -99 -106q-63 -42 -142 -42l25 190l-162 -26l47 188q-60 13 -88 14l-139 -159l-146 110q-36 -16 -82 -51 l76 -258l-264 -27q-15 -40 -29 -112l187 -86l-201 -162q3 -89 16 -143l162 -15l-80 -182q28 -42 68 -76l114 64l31 -51l-96 -50q69 -40 152 -57l83 213l132 -160l106 125l156 -61q80 71 106 135l45 -18q-29 -71 -119 -152l33 -242l-196 138q-103 -41 -201 -41q-57 0 -107 6 l-34 -99l295 31l-539 -477l221 555q-105 24 -182 80l-234 -119l113 246q-43 70 -68 162l-258 28l230 183v30q0 87 12 166zM158 893l149 -70q11 56 21 86zM180 428l123 -12q-9 51 -12 102zM336 616l108 86l-100 50q-8 -91 -8 -136zM369 66l88 49q-23 21 -45 49zM369 360 q16 -56 39 -98l41 90zM401 969l179 18l-52 176q-26 -19 -59 -67q-38 -52 -68 -127zM528 1346l27 -95q12 9 53 33zM709 1276l88 -64l80 91q-91 0 -168 -27zM760 35q49 -4 90 -4q25 0 61 4l-108 119zM938 41q101 20 195 84l-91 37zM975 1346q42 -6 61 -13l29 115zM1044 1163 l103 17l6 55q-35 23 -82 39zM1106 51l82 -67l-21 106q-27 -20 -61 -39z" />
<glyph unicode="&#xc8;" horiz-adv-x="1292" d="M121 8l4 49l201 4l16 578l-66 -2l3 49h63l18 569l-192 -6v45l194 6v64h46v-64l639 13l-52 -383l-225 8l53 326l-415 -11l-17 -563l668 12q6 32 36 57q29 25 70 25q45 0 77 -32q30 -33 30 -78q0 -46 -30 -78q-31 -33 -77 -33q-43 0 -72 25q-31 24 -36 65l-670 -12 l-14 -582l477 11l-4 346l244 10l8 -354l67 2l2 -45l-794 -17l-4 -75l-47 2l2 73zM352 1777l21 21l61 -15l119 23l270 -103l50 -2l22 -22l-80 -148l-127 82z" />
<glyph unicode="&#xc9;" horiz-adv-x="1292" d="M121 8l4 49l201 4l16 578l-66 -2l3 49h63l18 569l-192 -6v45l194 6v64h46v-64l639 13l-52 -383l-225 8l53 326l-415 -11l-17 -563l668 12q6 32 36 57q29 25 70 25q45 0 77 -32q30 -33 30 -78q0 -46 -30 -78q-31 -33 -77 -33q-43 0 -72 25q-31 24 -36 65l-670 -12 l-14 -582l477 11l-4 346l244 10l8 -354l67 2l2 -45l-794 -17l-4 -75l-47 2l2 73zM530 1679l23 22l49 2l270 103l119 -23l62 15l20 -21l-336 -164l-127 -82z" />
<glyph unicode="&#xca;" horiz-adv-x="1292" d="M121 8l4 49l201 4l16 578l-66 -2l3 49h63l18 569l-192 -6v45l194 6v64h46v-64l639 13l-52 -383l-225 8l53 326l-415 -11l-17 -563l668 12q6 32 36 57q29 25 70 25q45 0 77 -32q30 -33 30 -78q0 -46 -30 -78q-31 -33 -77 -33q-43 0 -72 25q-31 24 -36 65l-670 -12 l-14 -582l477 11l-4 346l244 10l8 -354l67 2l2 -45l-794 -17l-4 -75l-47 2l2 73zM477 1506v30l256 388l142 -385v-46h-27l-14 68l-148 119l-176 -176z" />
<glyph unicode="&#xcb;" horiz-adv-x="1292" d="M121 8l4 49l201 4l16 578l-66 -2l3 49h63l18 569l-192 -6v45l194 6v64h46v-64l639 13l-52 -383l-225 8l53 326l-415 -11l-17 -563l668 12q6 32 36 57q29 25 70 25q45 0 77 -32q30 -33 30 -78q0 -46 -30 -78q-31 -33 -77 -33q-43 0 -72 25q-31 24 -36 65l-670 -12 l-14 -582l477 11l-4 346l244 10l8 -354l67 2l2 -45l-794 -17l-4 -75l-47 2l2 73zM477 1720l55 90q48 0 79 -14q29 -14 32 -35q0 -26 -12 -44q-15 -22 -56 -57h-63zM690 1708l76 141l43 -8q37 -7 58 -19q17 -11 17 -41q0 -125 -47 -125l-139 4z" />
<glyph unicode="&#xcc;" horiz-adv-x="967" d="M100 16l39 185h277l-25 438l-127 -61l62 110l-2 4l-117 21l84 59l-90 59l121 9l-9 123l101 -78l10 280l-244 -4l-4 197l252 2l4 86h37l-4 -86l477 6l-8 -197l-473 -4l-8 -291l120 60l-18 -90h123l-84 -82l100 -66l-116 -20l40 -82l-108 39l-6 -88l-76 86l27 -430l526 2 l-4 -180l-510 -3l2 -83l-35 -3l-4 86zM178 76h49l-4 49h-41zM194 1777l21 21l61 -15l119 23l270 -103l50 -2l22 -22l-80 -148l-127 82zM238 1231l53 8l-8 45l-45 6v-59zM252 721l59 -8q-8 14 -8 41zM254 817l55 -33q6 22 25 37zM307 618l76 35q-24 9 -43 25zM317 76l43 8 l2 43l-45 2v-53zM336 918l6 -87q28 21 68 27zM342 752q0 -30 33 -51q32 -21 71 -21q51 0 79 23q26 23 26 49q0 25 -32 48q-31 21 -73 21q-51 0 -77 -22q-27 -22 -27 -47zM377 1227h51l-10 51l-39 4zM442 88h56l-6 43h-50v-43zM442 641l47 -55l3 59q-20 -4 -50 -4zM467 860 q36 -3 61 -18l15 57zM516 653l68 -26l-29 49q-23 -19 -39 -23zM535 1280l10 -53l47 2l-4 55zM555 823q16 -11 31 -39l39 39h-70zM575 698l72 9l-57 36q0 -25 -15 -45zM600 133l6 -45l37 -2l-2 49zM702 1231l72 14l-18 47l-54 -8v-53zM754 129l24 -45h45l-4 45h-65zM846 1284 l6 -53h45l-4 51zM905 135l2 -55h45l-10 51z" />
<glyph unicode="&#xcd;" horiz-adv-x="967" d="M100 16l39 185h277l-25 438l-127 -61l62 110l-2 4l-117 21l84 59l-90 59l121 9l-9 123l101 -78l10 280l-244 -4l-4 197l252 2l4 86h37l-4 -86l477 6l-8 -197l-473 -4l-8 -291l120 60l-18 -90h123l-84 -82l100 -66l-116 -20l40 -82l-108 39l-6 -88l-76 86l27 -430l526 2 l-4 -180l-510 -3l2 -83l-35 -3l-4 86zM178 76h49l-4 49h-41zM238 1231l53 8l-8 45l-45 6v-59zM252 721l59 -8q-8 14 -8 41zM254 817l55 -33q6 22 25 37zM307 618l76 35q-24 9 -43 25zM317 76l43 8l2 43l-45 2v-53zM336 918l6 -87q28 21 68 27zM342 752q0 -30 33 -51 q32 -21 71 -21q51 0 79 23q26 23 26 49q0 25 -32 48q-31 21 -73 21q-51 0 -77 -22q-27 -22 -27 -47zM377 1227h51l-10 51l-39 4zM399 1679l23 22l49 2l270 103l119 -23l62 15l20 -21l-336 -164l-127 -82zM442 88h56l-6 43h-50v-43zM442 641l47 -55l3 59q-20 -4 -50 -4z M467 860q36 -3 61 -18l15 57zM516 653l68 -26l-29 49q-23 -19 -39 -23zM535 1280l10 -53l47 2l-4 55zM555 823q16 -11 31 -39l39 39h-70zM575 698l72 9l-57 36q0 -25 -15 -45zM600 133l6 -45l37 -2l-2 49zM702 1231l72 14l-18 47l-54 -8v-53zM754 129l24 -45h45l-4 45h-65z M846 1284l6 -53h45l-4 51zM905 135l2 -55h45l-10 51z" />
<glyph unicode="&#xce;" horiz-adv-x="967" d="M100 16l39 185h277l-25 438l-127 -61l62 110l-2 4l-117 21l84 59l-90 59l121 9l-9 123l101 -78l10 280l-244 -4l-4 197l252 2l4 86h37l-4 -86l477 6l-8 -197l-473 -4l-8 -291l120 60l-18 -90h123l-84 -82l100 -66l-116 -20l40 -82l-108 39l-6 -88l-76 86l27 -430l526 2 l-4 -180l-510 -3l2 -83l-35 -3l-4 86zM178 76h49l-4 49h-41zM238 1231l53 8l-8 45l-45 6v-59zM252 721l59 -8q-8 14 -8 41zM254 817l55 -33q6 22 25 37zM307 618l76 35q-24 9 -43 25zM317 76l43 8l2 43l-45 2v-53zM335 1506v30l256 388l142 -385v-46h-27l-14 68l-148 119 l-176 -176zM336 918l6 -87q28 21 68 27zM342 752q0 -30 33 -51q32 -21 71 -21q51 0 79 23q26 23 26 49q0 25 -32 48q-31 21 -73 21q-51 0 -77 -22q-27 -22 -27 -47zM377 1227h51l-10 51l-39 4zM442 88h56l-6 43h-50v-43zM442 641l47 -55l3 59q-20 -4 -50 -4zM467 860 q36 -3 61 -18l15 57zM516 653l68 -26l-29 49q-23 -19 -39 -23zM535 1280l10 -53l47 2l-4 55zM555 823q16 -11 31 -39l39 39h-70zM575 698l72 9l-57 36q0 -25 -15 -45zM600 133l6 -45l37 -2l-2 49zM702 1231l72 14l-18 47l-54 -8v-53zM754 129l24 -45h45l-4 45h-65zM846 1284 l6 -53h45l-4 51zM905 135l2 -55h45l-10 51z" />
<glyph unicode="&#xcf;" horiz-adv-x="967" d="M100 16l39 185h277l-25 438l-127 -61l62 110l-2 4l-117 21l84 59l-90 59l121 9l-9 123l101 -78l10 280l-244 -4l-4 197l252 2l4 86h37l-4 -86l477 6l-8 -197l-473 -4l-8 -291l120 60l-18 -90h123l-84 -82l100 -66l-116 -20l40 -82l-108 39l-6 -88l-76 86l27 -430l526 2 l-4 -180l-510 -3l2 -83l-35 -3l-4 86zM178 76h49l-4 49h-41zM238 1231l53 8l-8 45l-45 6v-59zM252 721l59 -8q-8 14 -8 41zM254 817l55 -33q6 22 25 37zM307 618l76 35q-24 9 -43 25zM317 76l43 8l2 43l-45 2v-53zM336 918l6 -87q28 21 68 27zM342 752q0 -30 33 -51 q32 -21 71 -21q51 0 79 23q26 23 26 49q0 25 -32 48q-31 21 -73 21q-51 0 -77 -22q-27 -22 -27 -47zM367 1720l55 90q48 0 79 -14q29 -14 32 -35q0 -26 -12 -44q-15 -22 -56 -57h-63zM377 1227h51l-10 51l-39 4zM442 88h56l-6 43h-50v-43zM442 641l47 -55l3 59 q-20 -4 -50 -4zM467 860q36 -3 61 -18l15 57zM516 653l68 -26l-29 49q-23 -19 -39 -23zM535 1280l10 -53l47 2l-4 55zM555 823q16 -11 31 -39l39 39h-70zM575 698l72 9l-57 36q0 -25 -15 -45zM580 1708l76 141l43 -8q37 -7 58 -19q17 -11 17 -41q0 -125 -47 -125l-139 4z M600 133l6 -45l37 -2l-2 49zM702 1231l72 14l-18 47l-54 -8v-53zM754 129l24 -45h45l-4 45h-65zM846 1284l6 -53h45l-4 51zM905 135l2 -55h45l-10 51z" />
<glyph unicode="&#xd1;" horiz-adv-x="1618" d="M70 -70q0 47 35 82t83 35h2q29 83 57 257q27 165 55 412q27 238 42 421q14 190 14 276q0 37 -2 53q63 -99 160 -225q94 -121 219 -254q123 -132 270 -265q77 -69 148 -127t178 -140l146 780q-39 32 -39 82q0 44 31 74q32 30 73 30q43 0 74 -30t31 -74q0 -35 -27 -70 q-28 -34 -72 -34q-18 0 -30 4l-228 -1233q-62 31 -196 135q-114 90 -154 123.5t-132 112.5q-158 136 -275 249q-116 109 -175 178q-16 -168 -48 -370q-31 -201 -72 -373q22 -10 38 -28q15 -17 23 -37q8 -22 8 -44q0 -50 -34 -84t-85 -34q-48 0 -83 35t-35 83zM698 1685 q1 76 35 132q33 55 96 55q56 0 104 -23q47 -24 81 -54q23 -21 73 -61q38 -30 62 -30q57 0 57 67q0 39 -39 51l27 50q65 -41 65 -144q-1 -76 -34 -122q-31 -46 -99 -46q-75 0 -119 29q-45 30 -106 83q-61 54 -94 54q-27 0 -43 -19q-17 -20 -17 -44q0 -37 39 -58l-24 -45 q-64 34 -64 125z" />
<glyph unicode="&#xd2;" horiz-adv-x="1649" d="M29 647l192 211l-186 125l254 119l-80 227l303 -80l78 264l96 -198l178 180l180 -233l170 129l-24 -205l16 -12l221 83l-114 -186l14 -16l242 -19l-129 -141l188 -51l-196 -109l217 -102l-213 -133l-9 -29l168 -178l-241 26l151 -169l-286 -13l18 -203l-252 127l-12 -4 l-6 -282l-260 231l-115 -117l-111 240l-166 -47l-12 233l-197 -32l119 227q-13 62 -18 117zM121 676l86 -8q-2 26 -2 28q0 33 12 84zM129 977l119 -78q75 190 250 301l-224 68l70 -191zM186 340l103 20q-25 41 -45 95zM258 670q0 -154 77 -287q40 -67 91.5 -119.5 t117.5 -91.5q134 -78 290 -78q124 0 230 47q107 47 183 128q78 83 120 187t42 214q0 117 -44 223t-123 185t-185 123t-223 44q-155 0 -288 -77q-132 -76 -210 -209t-78 -289zM356 262l11 -115l86 23q-51 40 -97 92zM520 1777l21 21l61 -15l119 23l270 -103l50 -2l22 -22 l-80 -148l-127 82zM543 113l65 -138l82 84q-79 20 -147 54zM549 1229q62 29 104 41l-57 121zM727 1288q47 9 100 9q66 0 136 -15l-105 135zM743 47l175 -164l6 166q-6 0 -50 -3q-39 -4 -55 -4q-38 0 -76 5zM1057 82l127 -70l-15 127q-63 -40 -112 -57zM1085 1243 q55 -26 62 -31l14 91zM1229 182l186 4l-84 99q-54 -66 -102 -103zM1241 1147q25 -22 41 -41l45 76zM1358 1014q27 -41 43 -80l86 72zM1378 356l119 -16l-86 86q-12 -26 -18 -37q-9 -18 -15 -33zM1430 854l14 -72l84 49zM1452 559l111 74l-103 41q0 -51 -8 -115z" />
<glyph unicode="&#xd3;" horiz-adv-x="1649" d="M29 647l192 211l-186 125l254 119l-80 227l303 -80l78 264l96 -198l178 180l180 -233l170 129l-24 -205l16 -12l221 83l-114 -186l14 -16l242 -19l-129 -141l188 -51l-196 -109l217 -102l-213 -133l-9 -29l168 -178l-241 26l151 -169l-286 -13l18 -203l-252 127l-12 -4 l-6 -282l-260 231l-115 -117l-111 240l-166 -47l-12 233l-197 -32l119 227q-13 62 -18 117zM121 676l86 -8q-2 26 -2 28q0 33 12 84zM129 977l119 -78q75 190 250 301l-224 68l70 -191zM186 340l103 20q-25 41 -45 95zM258 670q0 -154 77 -287q40 -67 91.5 -119.5 t117.5 -91.5q134 -78 290 -78q124 0 230 47q107 47 183 128q78 83 120 187t42 214q0 117 -44 223t-123 185t-185 123t-223 44q-155 0 -288 -77q-132 -76 -210 -209t-78 -289zM356 262l11 -115l86 23q-51 40 -97 92zM543 113l65 -138l82 84q-79 20 -147 54zM549 1229 q62 29 104 41l-57 121zM712 1679l23 22l49 2l270 103l119 -23l62 15l20 -21l-336 -164l-127 -82zM727 1288q47 9 100 9q66 0 136 -15l-105 135zM743 47l175 -164l6 166q-6 0 -50 -3q-39 -4 -55 -4q-38 0 -76 5zM1057 82l127 -70l-15 127q-63 -40 -112 -57zM1085 1243 q55 -26 62 -31l14 91zM1229 182l186 4l-84 99q-54 -66 -102 -103zM1241 1147q25 -22 41 -41l45 76zM1358 1014q27 -41 43 -80l86 72zM1378 356l119 -16l-86 86q-12 -26 -18 -37q-9 -18 -15 -33zM1430 854l14 -72l84 49zM1452 559l111 74l-103 41q0 -51 -8 -115z" />
<glyph unicode="&#xd4;" horiz-adv-x="1649" d="M29 647l192 211l-186 125l254 119l-80 227l303 -80l78 264l96 -198l178 180l180 -233l170 129l-24 -205l16 -12l221 83l-114 -186l14 -16l242 -19l-129 -141l188 -51l-196 -109l217 -102l-213 -133l-9 -29l168 -178l-241 26l151 -169l-286 -13l18 -203l-252 127l-12 -4 l-6 -282l-260 231l-115 -117l-111 240l-166 -47l-12 233l-197 -32l119 227q-13 62 -18 117zM121 676l86 -8q-2 26 -2 28q0 33 12 84zM129 977l119 -78q75 190 250 301l-224 68l70 -191zM186 340l103 20q-25 41 -45 95zM258 670q0 -154 77 -287q40 -67 91.5 -119.5 t117.5 -91.5q134 -78 290 -78q124 0 230 47q107 47 183 128q78 83 120 187t42 214q0 117 -44 223t-123 185t-185 123t-223 44q-155 0 -288 -77q-132 -76 -210 -209t-78 -289zM356 262l11 -115l86 23q-51 40 -97 92zM543 113l65 -138l82 84q-79 20 -147 54zM549 1229 q62 29 104 41l-57 121zM667 1506v30l256 388l142 -385v-46h-27l-14 68l-148 119l-176 -176zM727 1288q47 9 100 9q66 0 136 -15l-105 135zM743 47l175 -164l6 166q-6 0 -50 -3q-39 -4 -55 -4q-38 0 -76 5zM1057 82l127 -70l-15 127q-63 -40 -112 -57zM1085 1243 q55 -26 62 -31l14 91zM1229 182l186 4l-84 99q-54 -66 -102 -103zM1241 1147q25 -22 41 -41l45 76zM1358 1014q27 -41 43 -80l86 72zM1378 356l119 -16l-86 86q-12 -26 -18 -37q-9 -18 -15 -33zM1430 854l14 -72l84 49zM1452 559l111 74l-103 41q0 -51 -8 -115z" />
<glyph unicode="&#xd5;" horiz-adv-x="1649" d="M29 647l192 211l-186 125l254 119l-80 227l303 -80l78 264l96 -198l178 180l180 -233l170 129l-24 -205l16 -12l221 83l-114 -186l14 -16l242 -19l-129 -141l188 -51l-196 -109l217 -102l-213 -133l-9 -29l168 -178l-241 26l151 -169l-286 -13l18 -203l-252 127l-12 -4 l-6 -282l-260 231l-115 -117l-111 240l-166 -47l-12 233l-197 -32l119 227q-13 62 -18 117zM121 676l86 -8q-2 26 -2 28q0 33 12 84zM129 977l119 -78q75 190 250 301l-224 68l70 -191zM186 340l103 20q-25 41 -45 95zM258 670q0 -154 77 -287q40 -67 91.5 -119.5 t117.5 -91.5q134 -78 290 -78q124 0 230 47q107 47 183 128q78 83 120 187t42 214q0 117 -44 223t-123 185t-185 123t-223 44q-155 0 -288 -77q-132 -76 -210 -209t-78 -289zM356 262l11 -115l86 23q-51 40 -97 92zM497 1685q1 76 35 132q33 55 96 55q56 0 104 -23 q47 -24 81 -54q23 -21 73 -61q38 -30 62 -30q57 0 57 67q0 39 -39 51l27 50q65 -41 65 -144q-1 -76 -34 -122q-31 -46 -99 -46q-75 0 -119 29q-45 30 -106 83q-61 54 -94 54q-27 0 -43 -19q-17 -20 -17 -44q0 -37 39 -58l-24 -45q-64 34 -64 125zM543 113l65 -138l82 84 q-79 20 -147 54zM549 1229q62 29 104 41l-57 121zM727 1288q47 9 100 9q66 0 136 -15l-105 135zM743 47l175 -164l6 166q-6 0 -50 -3q-39 -4 -55 -4q-38 0 -76 5zM1057 82l127 -70l-15 127q-63 -40 -112 -57zM1085 1243q55 -26 62 -31l14 91zM1229 182l186 4l-84 99 q-54 -66 -102 -103zM1241 1147q25 -22 41 -41l45 76zM1358 1014q27 -41 43 -80l86 72zM1378 356l119 -16l-86 86q-12 -26 -18 -37q-9 -18 -15 -33zM1430 854l14 -72l84 49zM1452 559l111 74l-103 41q0 -51 -8 -115z" />
<glyph unicode="&#xd6;" horiz-adv-x="1649" d="M29 647l192 211l-186 125l254 119l-80 227l303 -80l78 264l96 -198l178 180l180 -233l170 129l-24 -205l16 -12l221 83l-114 -186l14 -16l242 -19l-129 -141l188 -51l-196 -109l217 -102l-213 -133l-9 -29l168 -178l-241 26l151 -169l-286 -13l18 -203l-252 127l-12 -4 l-6 -282l-260 231l-115 -117l-111 240l-166 -47l-12 233l-197 -32l119 227q-13 62 -18 117zM121 676l86 -8q-2 26 -2 28q0 33 12 84zM129 977l119 -78q75 190 250 301l-224 68l70 -191zM186 340l103 20q-25 41 -45 95zM258 670q0 -154 77 -287q40 -67 91.5 -119.5 t117.5 -91.5q134 -78 290 -78q124 0 230 47q107 47 183 128q78 83 120 187t42 214q0 117 -44 223t-123 185t-185 123t-223 44q-155 0 -288 -77q-132 -76 -210 -209t-78 -289zM356 262l11 -115l86 23q-51 40 -97 92zM543 113l65 -138l82 84q-79 20 -147 54zM549 1229 q62 29 104 41l-57 121zM649 1720l55 90q48 0 79 -14q29 -14 32 -35q0 -26 -12 -44q-15 -22 -56 -57h-63zM727 1288q47 9 100 9q66 0 136 -15l-105 135zM743 47l175 -164l6 166q-6 0 -50 -3q-39 -4 -55 -4q-38 0 -76 5zM862 1708l76 141l43 -8q37 -7 58 -19q17 -11 17 -41 q0 -125 -47 -125l-139 4zM1057 82l127 -70l-15 127q-63 -40 -112 -57zM1085 1243q55 -26 62 -31l14 91zM1229 182l186 4l-84 99q-54 -66 -102 -103zM1241 1147q25 -22 41 -41l45 76zM1358 1014q27 -41 43 -80l86 72zM1378 356l119 -16l-86 86q-12 -26 -18 -37 q-9 -18 -15 -33zM1430 854l14 -72l84 49zM1452 559l111 74l-103 41q0 -51 -8 -115z" />
<glyph unicode="&#xd7;" horiz-adv-x="0" />
<glyph unicode="&#xd8;" horiz-adv-x="1649" d="M29 610l202 125l-202 101l209 63l-142 137l240 19l14 16l-112 186l219 -83l18 12l2 178l123 -111l21 9l178 233l176 -184l98 202l80 -264l21 4l153 303l94 -45l-129 -225l162 43l-80 -227l256 -119l-186 -125l192 -211l-180 -20q-3 -58 -18 -117l123 -234l-201 39 l-19 -231l-163 45l-111 -240l-113 125l-258 -235l-4 278l-14 4l-121 -61l-211 -383l-94 43l174 274l18 187h-284l149 198l-205 -14l132 168l-11 33zM111 614l100 -53q-8 59 -8 113zM127 825l90 -45l16 74zM178 1006l84 -72q17 42 45 80zM186 344l103 10l-35 68zM238 158 l211 12q-57 45 -115 117zM254 670q0 -107 40 -208q40 -104 112 -182q72 -80 167 -128l224 362l329 649q-70 43 -140 62q-75 20 -155 20q-115 0 -223 -44q-105 -43 -185 -123q-81 -81 -124 -185q-45 -105 -45 -223zM330 1178l51 -72q32 32 43 41zM479 -2l133 78 q-67 22 -118 63zM514 1208q29 18 49 27l-47 45zM631 127q99 -33 200 -33q120 0 223 45q104 44 185 125t124 185q44 106 44 221q0 134 -57 251q-57 116 -156 195zM694 1278q82 20 146 20q53 0 92 -12l-129 133zM739 49l6 -168l177 166q8 0 -28 -2t-55 -2q-53 0 -100 6z M975 59l82 -84l65 138q-64 -33 -147 -54zM1010 1270q37 -10 106 -41l-53 153zM1167 1200q15 -7 30 -18q9 -7 13.5 -10t12.5 -9q140 -112 192 -264l119 78l-213 100l70 191zM1214 174l82 -27l11 115q-41 -51 -93 -88zM1376 360l101 -20l-58 115q-15 -49 -43 -95zM1448 780 q11 -55 11 -93v-10q-1 -3 -1 -9l84 8z" />
<glyph unicode="&#xd9;" horiz-adv-x="1384" d="M70 1090l26 219l316 8q-50 -185 -85 -345q-33 -151 -48 -264q-16 -111 -16 -208q0 -10 1 -15v-18l137 92q65 -240 250 -240q32 0 86 9v-230q59 32 120 102t120 188q61 122 106 276l-84 708q32 7 64 7q73 0 123 -38q49 -39 49 -127q-9 -277 -100 -575l34 -332l131 21 l56 -344l-189 -31l-69 588q-42 -116 -88 -207q-47 -95 -107 -165q-58 -70 -135 -111q-76 -42 -170 -42q-84 0 -156 29q-69 28 -122 87q-52 58 -79 147q-28 87 -28 208q0 122 21 260q18 125 61 316zM346 1777l21 21l61 -15l119 23l270 -103l50 -2l22 -22l-80 -148l-127 82z M1063 1190l18 -170l84 -2l21 166z" />
<glyph unicode="&#xda;" horiz-adv-x="1384" d="M70 1090l26 219l316 8q-50 -185 -85 -345q-33 -151 -48 -264q-16 -111 -16 -208q0 -10 1 -15v-18l137 92q65 -240 250 -240q32 0 86 9v-230q59 32 120 102t120 188q61 122 106 276l-84 708q32 7 64 7q73 0 123 -38q49 -39 49 -127q-9 -277 -100 -575l34 -332l131 21 l56 -344l-189 -31l-69 588q-42 -116 -88 -207q-47 -95 -107 -165q-58 -70 -135 -111q-76 -42 -170 -42q-84 0 -156 29q-69 28 -122 87q-52 58 -79 147q-28 87 -28 208q0 122 21 260q18 125 61 316zM608 1679l23 22l49 2l270 103l119 -23l62 15l20 -21l-336 -164l-127 -82z M1063 1190l18 -170l84 -2l21 166z" />
<glyph unicode="&#xdb;" horiz-adv-x="1384" d="M70 1090l26 219l316 8q-50 -185 -85 -345q-33 -151 -48 -264q-16 -111 -16 -208q0 -10 1 -15v-18l137 92q65 -240 250 -240q32 0 86 9v-230q59 32 120 102t120 188q61 122 106 276l-84 708q32 7 64 7q73 0 123 -38q49 -39 49 -127q-9 -277 -100 -575l34 -332l131 21 l56 -344l-189 -31l-69 588q-42 -116 -88 -207q-47 -95 -107 -165q-58 -70 -135 -111q-76 -42 -170 -42q-84 0 -156 29q-69 28 -122 87q-52 58 -79 147q-28 87 -28 208q0 122 21 260q18 125 61 316zM495 1506v30l256 388l142 -385v-46h-27l-14 68l-148 119l-176 -176z M1063 1190l18 -170l84 -2l21 166z" />
<glyph unicode="&#xdc;" horiz-adv-x="1384" d="M70 1090l26 219l316 8q-50 -185 -85 -345q-33 -151 -48 -264q-16 -111 -16 -208q0 -10 1 -15v-18l137 92q65 -240 250 -240q32 0 86 9v-230q59 32 120 102t120 188q61 122 106 276l-84 708q32 7 64 7q73 0 123 -38q49 -39 49 -127q-9 -277 -100 -575l34 -332l131 21 l56 -344l-189 -31l-69 588q-42 -116 -88 -207q-47 -95 -107 -165q-58 -70 -135 -111q-76 -42 -170 -42q-84 0 -156 29q-69 28 -122 87q-52 58 -79 147q-28 87 -28 208q0 122 21 260q18 125 61 316zM553 1720l55 90q48 0 79 -14q29 -14 32 -35q0 -26 -12 -44q-15 -22 -56 -57 h-63zM766 1708l76 141l43 -8q37 -7 58 -19q17 -11 17 -41q0 -125 -47 -125l-139 4zM1063 1190l18 -170l84 -2l21 166z" />
<glyph unicode="&#xdf;" horiz-adv-x="1047" d="M74 -119q0 47 35 88t98 41l-4 98q-3 52 -7 157q-5 83 -6 157q0 40 -1 74t-1 96q0 328 56 523q55 190 145 265q89 72 193 72q65 0 110 -21t69 -51q24 -31 34 -62q10 -30 10 -56q0 -50 -12 -86q-13 -37 -31 -62q-15 -20 -54 -62q-33 -35 -46 -51l77 -38l-6 -54l-106 37 q-32 -72 -35 -170l166 45v-69l-53 -19q70 -31 122 -94l45 23h46l-7 -52l-47 -30q37 -71 37 -160q0 -23 -4 -51l147 24l-2 -59l-161 -27q-21 -58 -62 -102q-45 -46 -100 -76l43 -180h-57l-74 147q-57 -16 -113 -16l-39 -88l-80 8l95 166l53 -19l-10 -24q39 3 75 12l-37 76 l121 20l15 -59q85 49 120 127l-90 -14l2 57l109 18q6 29 6 60q0 82 -29 137l-79 -53l-70 2l-4 57l112 58q-53 65 -151 92l-88 -29l-76 61l76 21q0 122 37 197l-41 14l2 80l74 -37q2 3 53 57q48 51 69 91q19 37 19 94q0 39 -21 72t-62 54q-40 21 -97 21q-90 0 -156 -54 q-66 -55 -110 -160q-43 -105 -64 -256q-21 -150 -21 -347v-24q-1 -6 -1 -21q0 -41 4 -125q2 -32 3 -81t5.5 -156.5t7.5 -182.5q37 -15 60 -47q22 -31 22 -74q0 -54 -38 -92q-37 -37 -91 -37q-52 0 -90 38q-39 37 -39 91z" />
<glyph unicode="&#xe0;" horiz-adv-x="817" d="M43 645q0 43 37 70q-2 14 -2 31q0 62 37 111q38 50 97 78t120 28q182 0 211 -191h112l19 -500l-109 -2q23 -173 125 -213q0 25 18 47q17 21 50 21q29 0 48 -19t19 -49q0 -28 -19 -47q-20 -20 -48 -20q-34 0 -51 24q-99 22 -140 103q-46 -27 -117 -45q-69 -19 -142 -19 q-97 0 -159 41q-63 41 -63 131q0 98 76 146q76 47 166 61q90 12 188 12q1 24 1 101q0 146 -15 225q-17 81 -56 116q-40 36 -114 36q-73 0 -143 -46q-71 -47 -71 -126q0 -15 1 -19q42 0 69 -21t27 -65q0 -36 -24 -62q-26 -26 -62 -26q-34 0 -60 27q-26 26 -26 61zM66 1288 l20 21l61 -15l119 23l271 -103l49 -2l22 -22l-80 -148l-127 82zM125 225q0 -70 51 -102q50 -32 129 -32q64 0 131 18q69 18 115 45q-32 67 -35 252q-208 -1 -300 -48q-91 -48 -91 -133z" />
<glyph unicode="&#xe1;" horiz-adv-x="817" d="M43 645q0 43 37 70q-2 14 -2 31q0 62 37 111q38 50 97 78t120 28q182 0 211 -191h112l19 -500l-109 -2q23 -173 125 -213q0 25 18 47q17 21 50 21q29 0 48 -19t19 -49q0 -28 -19 -47q-20 -20 -48 -20q-34 0 -51 24q-99 22 -140 103q-46 -27 -117 -45q-69 -19 -142 -19 q-97 0 -159 41q-63 41 -63 131q0 98 76 146q76 47 166 61q90 12 188 12q1 24 1 101q0 146 -15 225q-17 81 -56 116q-40 36 -114 36q-73 0 -143 -46q-71 -47 -71 -126q0 -15 1 -19q42 0 69 -21t27 -65q0 -36 -24 -62q-26 -26 -62 -26q-34 0 -60 27q-26 26 -26 61zM125 225 q0 -70 51 -102q50 -32 129 -32q64 0 131 18q69 18 115 45q-32 67 -35 252q-208 -1 -300 -48q-91 -48 -91 -133zM181 1190l23 22l49 2l270 103l119 -23l62 15l20 -21l-336 -164l-127 -82z" />
<glyph unicode="&#xe2;" horiz-adv-x="817" d="M43 645q0 43 37 70q-2 14 -2 31q0 62 37 111q38 50 97 78t120 28q182 0 211 -191h112l19 -500l-109 -2q23 -173 125 -213q0 25 18 47q17 21 50 21q29 0 48 -19t19 -49q0 -28 -19 -47q-20 -20 -48 -20q-34 0 -51 24q-99 22 -140 103q-46 -27 -117 -45q-69 -19 -142 -19 q-97 0 -159 41q-63 41 -63 131q0 98 76 146q76 47 166 61q90 12 188 12q1 24 1 101q0 146 -15 225q-17 81 -56 116q-40 36 -114 36q-73 0 -143 -46q-71 -47 -71 -126q0 -15 1 -19q42 0 69 -21t27 -65q0 -36 -24 -62q-26 -26 -62 -26q-34 0 -60 27q-26 26 -26 61zM125 225 q0 -70 51 -102q50 -32 129 -32q64 0 131 18q69 18 115 45q-32 67 -35 252q-208 -1 -300 -48q-91 -48 -91 -133zM165 1057v30l256 388l142 -385v-46h-27l-14 68l-148 119l-176 -176z" />
<glyph unicode="&#xe3;" horiz-adv-x="817" d="M43 645q0 43 37 70q-2 14 -2 31q0 62 37 111q38 50 97 78t120 28q182 0 211 -191h112l19 -500l-109 -2q23 -173 125 -213q0 25 18 47q17 21 50 21q29 0 48 -19t19 -49q0 -28 -19 -47q-20 -20 -48 -20q-34 0 -51 24q-99 22 -140 103q-46 -27 -117 -45q-69 -19 -142 -19 q-97 0 -159 41q-63 41 -63 131q0 98 76 146q76 47 166 61q90 12 188 12q1 24 1 101q0 146 -15 225q-17 81 -56 116q-40 36 -114 36q-73 0 -143 -46q-71 -47 -71 -126q0 -15 1 -19q42 0 69 -21t27 -65q0 -36 -24 -62q-26 -26 -62 -26q-34 0 -60 27q-26 26 -26 61zM91 1163 q1 76 35 132q33 55 96 55q56 0 104 -23q47 -24 81 -54q23 -21 73 -61q38 -30 62 -30q57 0 57 67q0 39 -39 51l27 50q65 -41 65 -144q-1 -76 -34 -122q-31 -46 -99 -46q-75 0 -119 29q-45 30 -106 83q-61 54 -94 54q-27 0 -43 -19q-17 -20 -17 -44q0 -37 39 -58l-24 -45 q-64 34 -64 125zM125 225q0 -70 51 -102q50 -32 129 -32q64 0 131 18q69 18 115 45q-32 67 -35 252q-208 -1 -300 -48q-91 -48 -91 -133z" />
<glyph unicode="&#xe4;" horiz-adv-x="817" d="M43 645q0 43 37 70q-2 14 -2 31q0 62 37 111q38 50 97 78t120 28q182 0 211 -191h112l19 -500l-109 -2q23 -173 125 -213q0 25 18 47q17 21 50 21q29 0 48 -19t19 -49q0 -28 -19 -47q-20 -20 -48 -20q-34 0 -51 24q-99 22 -140 103q-46 -27 -117 -45q-69 -19 -142 -19 q-97 0 -159 41q-63 41 -63 131q0 98 76 146q76 47 166 61q90 12 188 12q1 24 1 101q0 146 -15 225q-17 81 -56 116q-40 36 -114 36q-73 0 -143 -46q-71 -47 -71 -126q0 -15 1 -19q42 0 69 -21t27 -65q0 -36 -24 -62q-26 -26 -62 -26q-34 0 -60 27q-26 26 -26 61zM125 225 q0 -70 51 -102q50 -32 129 -32q64 0 131 18q69 18 115 45q-32 67 -35 252q-208 -1 -300 -48q-91 -48 -91 -133zM150 1104l55 90q48 0 79 -14q29 -14 32 -35q0 -26 -12 -44q-15 -22 -56 -57h-63zM363 1092l76 141l43 -8q37 -7 58 -19q17 -11 17 -41q0 -125 -47 -125l-139 4z " />
<glyph unicode="&#xe5;" horiz-adv-x="817" d="M43 645q0 43 37 70q-2 14 -2 31q0 62 37 111q38 50 97 78t120 28q182 0 211 -191h112l19 -500l-109 -2q23 -173 125 -213q0 25 18 47q17 21 50 21q29 0 48 -19t19 -49q0 -28 -19 -47q-20 -20 -48 -20q-34 0 -51 24q-99 22 -140 103q-46 -27 -117 -45q-69 -19 -142 -19 q-97 0 -159 41q-63 41 -63 131q0 98 76 146q76 47 166 61q90 12 188 12q1 24 1 101q0 146 -15 225q-17 81 -56 116q-40 36 -114 36q-73 0 -143 -46q-71 -47 -71 -126q0 -15 1 -19q42 0 69 -21t27 -65q0 -36 -24 -62q-26 -26 -62 -26q-34 0 -60 27q-26 26 -26 61zM125 225 q0 -70 51 -102q50 -32 129 -32q64 0 131 18q69 18 115 45q-32 67 -35 252q-208 -1 -300 -48q-91 -48 -91 -133zM141 1268q0 57 30 108q28 49 79 80q50 29 106 29q58 0 109 -30q51 -31 79 -80q29 -50 29 -107q0 -90 -63 -152q-64 -63 -154 -63q-55 0 -105 29q-51 29 -80 79 q-30 50 -30 107zM203 1268q0 -61 45 -108q44 -48 108 -48q61 0 109 45q47 45 47 111q0 62 -44 109q-43 46 -112 46q-59 0 -106 -44t-47 -111z" />
<glyph unicode="&#xe6;" horiz-adv-x="1360" d="M63 641q0 44 39 72q-8 18 -8 55q0 59 62 127t182 68q108 0 168 -77q59 -76 67 -245q25 151 112 230q86 79 216 79q135 0 217 -59q80 -61 113 -154q33 -94 33 -207q0 -13 -4 -65h-652q0 -149 51 -241q49 -92 146 -133q93 -40 235 -40q111 0 189 23q79 23 112 49l25 -33 q-104 -80 -326 -80q-141 0 -239 36q-97 34 -150 112q-41 -35 -134 -71q-94 -36 -183 -36q-117 0 -172 52q-56 51 -56 118q0 110 110 167q110 56 321 56v56q0 150 -17 243q-16 90 -60 135q-44 44 -122 44q-69 0 -115 -28q-48 -29 -67 -65q-21 -37 -21 -61q0 -29 6 -41 q21 0 43 -8q20 -7 37 -27q15 -19 15 -51q0 -34 -26 -60t-60 -26q-35 0 -61 26t-26 60zM147 221q0 -60 51 -95q49 -34 136 -34q116 0 235 62q-24 74 -30 249h-27q-123 0 -204 -21q-82 -23 -121 -62q-40 -40 -40 -99zM625 686h581q-58 223 -305 223q-104 0 -175 -56t-101 -167 z" />
<glyph unicode="&#xe7;" horiz-adv-x="1073" d="M72 453q0 182 68 316t189 203q122 68 279 68q197 0 304 -107q106 -107 106 -280q0 -76 -39 -126q-41 -50 -117 -50q-116 0 -180 121l33 98h258q-6 67 -31 120q-26 53 -72 95q-48 42 -111 64t-151 22q-143 0 -255 -62q-112 -63 -175 -186q-63 -124 -63 -296 q0 -118 29 -211q29 -91 91 -154q61 -61 160 -90l185 125l73 -143q90 12 180 48q89 35 156 89l27 -33q-49 -40 -144 -84q-92 -42 -194 -59l70 -127l-338 -224q10 -16 10 -39q0 -31 -23 -54q-25 -23 -55 -23q-31 0 -54 23q-24 22 -24 54t23 55t55 23q22 0 33 -8l114 76v240 q-417 46 -417 516zM203 401l18 70l47 4v-74h-65zM248 551l6 70l61 -23l-2 -49zM266 209l2 74l60 -13l-2 -61h-60zM303 715l25 67l47 -2l-2 -65h-70zM375 96l6 60l113 -4l-54 -56h-65zM455 -14q75 -11 125 -11h30l-45 86zM457 831l37 70l45 8l-2 -82zM530 -66v-210l160 106 l-57 104q-22 -2 -53 -2q-28 0 -50 2zM676 840l10 53h53l4 -62zM692 139l80 -20v-49h-74zM821 631l10 -74l84 -4l-24 78h-70zM872 162l5 63l59 -2v-61h-64z" />
<glyph unicode="&#xe8;" horiz-adv-x="866" d="M70 397q0 205 90 326q88 121 256 121q87 0 154 -30t112 -84q44 -53 67 -122q21 -69 21 -149q0 -54 -6 -101h-649q4 -103 32 -180q26 -76 78 -125q51 -50 130 -76q80 -26 184 -26q207 0 299 65l26 -36q-38 -27 -118 -50q-82 -24 -207 -24q-146 0 -242 44q-94 43 -144 118 q-49 73 -66 154q-17 82 -17 175zM102 1288l21 21l61 -15l119 23l270 -103l50 -2l22 -22l-80 -148l-127 82zM137 580h572q-27 102 -102 160q-77 59 -191 59q-67 0 -122 -23q-55 -24 -95 -73q-39 -48 -62 -123z" />
<glyph unicode="&#xe9;" horiz-adv-x="866" d="M70 397q0 205 90 326q88 121 256 121q87 0 154 -30t112 -84q44 -53 67 -122q21 -69 21 -149q0 -54 -6 -101h-649q4 -103 32 -180q26 -76 78 -125q51 -50 130 -76q80 -26 184 -26q207 0 299 65l26 -36q-38 -27 -118 -50q-82 -24 -207 -24q-146 0 -242 44q-94 43 -144 118 q-49 73 -66 154q-17 82 -17 175zM137 580h572q-27 102 -102 160q-77 59 -191 59q-67 0 -122 -23q-55 -24 -95 -73q-39 -48 -62 -123zM275 1190l23 22l49 2l270 103l119 -23l62 15l20 -21l-336 -164l-127 -82z" />
<glyph unicode="&#xea;" horiz-adv-x="866" d="M70 397q0 205 90 326q88 121 256 121q87 0 154 -30t112 -84q44 -53 67 -122q21 -69 21 -149q0 -54 -6 -101h-649q4 -103 32 -180q26 -76 78 -125q51 -50 130 -76q80 -26 184 -26q207 0 299 65l26 -36q-38 -27 -118 -50q-82 -24 -207 -24q-146 0 -242 44q-94 43 -144 118 q-49 73 -66 154q-17 82 -17 175zM137 580h572q-27 102 -102 160q-77 59 -191 59q-67 0 -122 -23q-55 -24 -95 -73q-39 -48 -62 -123zM215 1057v30l256 388l142 -385v-46h-27l-14 68l-148 119l-176 -176z" />
<glyph unicode="&#xeb;" horiz-adv-x="866" d="M70 397q0 205 90 326q88 121 256 121q87 0 154 -30t112 -84q44 -53 67 -122q21 -69 21 -149q0 -54 -6 -101h-649q4 -103 32 -180q26 -76 78 -125q51 -50 130 -76q80 -26 184 -26q207 0 299 65l26 -36q-38 -27 -118 -50q-82 -24 -207 -24q-146 0 -242 44q-94 43 -144 118 q-49 73 -66 154q-17 82 -17 175zM137 580h572q-27 102 -102 160q-77 59 -191 59q-67 0 -122 -23q-55 -24 -95 -73q-39 -48 -62 -123zM234 1104l55 90q48 0 79 -14q29 -14 32 -35q0 -26 -12 -44q-15 -22 -56 -57h-63zM447 1092l76 141l43 -8q37 -7 58 -19q17 -11 17 -41 q0 -125 -47 -125l-139 4z" />
<glyph unicode="&#xec;" horiz-adv-x="551" d="M-72 1288l21 21l61 -15l119 23l270 -103l50 -2l22 -22l-80 -148l-127 82zM0 8l203 10l63 580q5 58 5 82q0 95 -31 145l-217 -32l-5 32l246 37q32 -63 37 -100q28 -1 43 -18q14 -19 14 -43q0 -23 -15 -43q-16 -19 -40 -19l-4 -64q26 -7 43 -30q15 -22 15 -45 q0 -27 -19 -49t-49 -25l-4 -47q50 -39 50 -94q0 -66 -75 -92l-16 -173l221 9l2 -37l-227 -12l-7 -54l-43 -2l9 56l-197 -11z" />
<glyph unicode="&#xed;" horiz-adv-x="551" d="M0 8l203 10l63 580q5 58 5 82q0 95 -31 145l-217 -32l-5 32l246 37q32 -63 37 -100q28 -1 43 -18q14 -19 14 -43q0 -23 -15 -43q-16 -19 -40 -19l-4 -64q26 -7 43 -30q15 -22 15 -45q0 -27 -19 -49t-49 -25l-4 -47q50 -39 50 -94q0 -66 -75 -92l-16 -173l221 9l2 -37 l-227 -12l-7 -54l-43 -2l9 56l-197 -11zM96 1190l23 22l49 2l270 103l119 -23l62 15l20 -21l-336 -164l-127 -82z" />
<glyph unicode="&#xee;" horiz-adv-x="551" d="M0 8l203 10l63 580q5 58 5 82q0 95 -31 145l-217 -32l-5 32l246 37q32 -63 37 -100q28 -1 43 -18q14 -19 14 -43q0 -23 -15 -43q-16 -19 -40 -19l-4 -64q26 -7 43 -30q15 -22 15 -45q0 -27 -19 -49t-49 -25l-4 -47q50 -39 50 -94q0 -66 -75 -92l-16 -173l221 9l2 -37 l-227 -12l-7 -54l-43 -2l9 56l-197 -11zM63 1057v30l256 388l142 -385v-46h-27l-14 68l-148 119l-176 -176z" />
<glyph unicode="&#xef;" horiz-adv-x="551" d="M0 8l203 10l63 580q5 58 5 82q0 95 -31 145l-217 -32l-5 32l246 37q32 -63 37 -100q28 -1 43 -18q14 -19 14 -43q0 -23 -15 -43q-16 -19 -40 -19l-4 -64q26 -7 43 -30q15 -22 15 -45q0 -27 -19 -49t-49 -25l-4 -47q50 -39 50 -94q0 -66 -75 -92l-16 -173l221 9l2 -37 l-227 -12l-7 -54l-43 -2l9 56l-197 -11zM37 1104l55 90q48 0 79 -14q29 -14 32 -35q0 -26 -12 -44q-15 -22 -56 -57h-63zM250 1092l76 141l43 -8q37 -7 58 -19q17 -11 17 -41q0 -125 -47 -125l-139 4z" />
<glyph unicode="&#xf1;" horiz-adv-x="1110" d="M-43 815q0 32 22 54q23 23 50 26q56 41 110 41q81 0 124 -69q43 -70 46 -197q33 48 80 99.5t101 98.5q108 93 223 93q250 0 250 -375q-1 -239 -105 -631l-143 -23l30 461l162 4q8 66 13 187q0 160 -45 248q-46 88 -162 88q-48 0 -103 -28t-114 -78q-54 -46 -103 -106 q-43 -54 -78 -118q1 -29 1 -123q0 -174 -17 -253q-17 -77 -68 -77q-55 0 -55 111q0 141 98 364q0 121 -32 205q-33 82 -99 82q-35 0 -63 -16q39 -27 39 -68q0 -31 -23 -56q-22 -24 -57 -24q-34 0 -58 24t-24 56zM258 1163q1 76 35 132q33 55 96 55q56 0 104 -23 q47 -24 81 -54q23 -21 73 -61q38 -30 62 -30q57 0 57 67q0 39 -39 51l27 50q65 -41 65 -144q-1 -76 -34 -122q-31 -46 -99 -46q-75 0 -119 29q-45 30 -106 83q-61 54 -94 54q-27 0 -43 -19q-17 -20 -17 -44q0 -37 39 -58l-24 -45q-64 34 -64 125z" />
<glyph unicode="&#xf2;" horiz-adv-x="1026" d="M70 453q0 97 32 185q32 87 90 153t140 103q81 36 182 36q134 0 234 -63q100 -64 154 -173t54 -241q0 -130 -54 -240q-56 -111 -155 -173q-100 -63 -233 -63q-101 0 -182 36q-83 36 -141 103q-59 68 -90 154q-31 84 -31 183zM111 453q0 -84 26 -164q26 -79 77 -139 q54 -63 129 -97q78 -35 171 -35q115 0 207 53q89 52 142 152q52 98 52 230q0 94 -28 174q-29 82 -81 140q-53 59 -125 90q-75 32 -167 32q-111 0 -205 -53q-92 -54 -145 -153q-53 -100 -53 -230zM187 1288l21 21l61 -15l119 23l270 -103l50 -2l22 -22l-80 -148l-127 82z" />
<glyph unicode="&#xf3;" horiz-adv-x="1026" d="M70 453q0 97 32 185q32 87 90 153t140 103q81 36 182 36q134 0 234 -63q100 -64 154 -173t54 -241q0 -130 -54 -240q-56 -111 -155 -173q-100 -63 -233 -63q-101 0 -182 36q-83 36 -141 103q-59 68 -90 154q-31 84 -31 183zM111 453q0 -84 26 -164q26 -79 77 -139 q54 -63 129 -97q78 -35 171 -35q115 0 207 53q89 52 142 152q52 98 52 230q0 94 -28 174q-29 82 -81 140q-53 59 -125 90q-75 32 -167 32q-111 0 -205 -53q-92 -54 -145 -153q-53 -100 -53 -230zM339 1190l23 22l49 2l270 103l119 -23l62 15l20 -21l-336 -164l-127 -82z" />
<glyph unicode="&#xf4;" horiz-adv-x="1026" d="M70 453q0 97 32 185q32 87 90 153t140 103q81 36 182 36q134 0 234 -63q100 -64 154 -173t54 -241q0 -130 -54 -240q-56 -111 -155 -173q-100 -63 -233 -63q-101 0 -182 36q-83 36 -141 103q-59 68 -90 154q-31 84 -31 183zM111 453q0 -84 26 -164q26 -79 77 -139 q54 -63 129 -97q78 -35 171 -35q115 0 207 53q89 52 142 152q52 98 52 230q0 94 -28 174q-29 82 -81 140q-53 59 -125 90q-75 32 -167 32q-111 0 -205 -53q-92 -54 -145 -153q-53 -100 -53 -230zM317 1057v30l256 388l142 -385v-46h-27l-14 68l-148 119l-176 -176z" />
<glyph unicode="&#xf5;" horiz-adv-x="1026" d="M70 453q0 97 32 185q32 87 90 153t140 103q81 36 182 36q134 0 234 -63q100 -64 154 -173t54 -241q0 -130 -54 -240q-56 -111 -155 -173q-100 -63 -233 -63q-101 0 -182 36q-83 36 -141 103q-59 68 -90 154q-31 84 -31 183zM111 453q0 -84 26 -164q26 -79 77 -139 q54 -63 129 -97q78 -35 171 -35q115 0 207 53q89 52 142 152q52 98 52 230q0 94 -28 174q-29 82 -81 140q-53 59 -125 90q-75 32 -167 32q-111 0 -205 -53q-92 -54 -145 -153q-53 -100 -53 -230zM195 1163q1 76 35 132q33 55 96 55q56 0 104 -23q47 -24 81 -54 q23 -21 73 -61q38 -30 62 -30q57 0 57 67q0 39 -39 51l27 50q65 -41 65 -144q-1 -76 -34 -122q-31 -46 -99 -46q-75 0 -119 29q-45 30 -106 83q-61 54 -94 54q-27 0 -43 -19q-17 -20 -17 -44q0 -37 39 -58l-24 -45q-64 34 -64 125z" />
<glyph unicode="&#xf6;" horiz-adv-x="1026" d="M70 453q0 97 32 185q32 87 90 153t140 103q81 36 182 36q134 0 234 -63q100 -64 154 -173t54 -241q0 -130 -54 -240q-56 -111 -155 -173q-100 -63 -233 -63q-101 0 -182 36q-83 36 -141 103q-59 68 -90 154q-31 84 -31 183zM111 453q0 -84 26 -164q26 -79 77 -139 q54 -63 129 -97q78 -35 171 -35q115 0 207 53q89 52 142 152q52 98 52 230q0 94 -28 174q-29 82 -81 140q-53 59 -125 90q-75 32 -167 32q-111 0 -205 -53q-92 -54 -145 -153q-53 -100 -53 -230zM328 1104l55 90q48 0 79 -14q29 -14 32 -35q0 -26 -12 -44q-15 -22 -56 -57 h-63zM541 1092l76 141l43 -8q37 -7 58 -19q17 -11 17 -41q0 -125 -47 -125l-139 4z" />
<glyph unicode="&#xf7;" d="M68 0v1366h684v-1366h-684zM82 14h655v1338h-655v-1338z" />
<glyph unicode="&#xf8;" horiz-adv-x="1026" d="M70 453q0 97 32 185q32 87 90 153t140 103q81 36 182 36q114 0 215 -53l25 43l114 84l33 -41l-98 -138q47 -42 83 -101q36 -62 53 -127q17 -70 17 -144q0 -130 -54 -240q-56 -111 -155 -173q-100 -63 -233 -63q-150 0 -264 84l-66 -104l-78 -37l103 176q-66 66 -102 160 q-37 92 -37 197zM111 453q0 -99 29.5 -180.5t88.5 -143.5l60 104l147 175l271 436q-89 47 -193 47q-117 0 -208 -55q-93 -56 -144 -154q-51 -100 -51 -229zM270 94q102 -78 244 -78q89 0 163 31q76 30 129 88t83 138q29 82 29 180q0 105 -35 193q-36 86 -103 147l-71 -101 l-215 -243z" />
<glyph unicode="&#xf9;" horiz-adv-x="1044" d="M84 874q0 44 30 75q30 32 81 32q31 0 56 -14q24 -15 38 -41q14 -28 14 -60q0 -54 -19 -120q-24 -83 -53 -165q-35 -101 -54 -172q-19 -72 -19 -139q0 -116 46 -177q47 -62 152 -62q69 0 133 41q62 40 121 129q43 64 88 176q-57 335 -57 471q0 46 22 80q21 35 72 35 q62 0 81 -45q20 -46 20 -134q0 -19 -10 -82q-11 -67 -33 -155q-24 -98 -56 -176l43 -230q9 -51 22 -78q14 -29 31 -42q16 -13 44 -13q29 0 60 19t77 71l30 -24q-37 -48 -77 -76q-41 -29 -90 -29q-60 0 -90 42q-29 41 -46 122l-32 170q-137 -311 -353 -311q-237 0 -237 272 q0 71 18 144q18 72 57 189q40 120 54 169q14 54 14 100q0 38 -19 57t-48 19q-70 0 -70 -68q0 -27 13 -40t46 -13v-41q-100 0 -100 94zM147 1288l21 21l61 -15l119 23l270 -103l50 -2l22 -22l-80 -148l-127 82zM592 397v29h29v-29h-29zM596 770v29h31v-29h-31zM621 598v31h30 v-31h-30zM682 834l109 26q-5 37 -17 49q-13 13 -39 13q-53 0 -53 -74v-14zM686 754q1 -19 10 -86l84 4q3 13 5 26t4 25q5 26 6 45zM692 993v31h29v-31h-29zM709 571q16 -112 16 -108q5 16 11 37t10 34t10 33zM813 379v31h27v-31h-27zM842 592v29h30v-29h-30zM872 821v31h27 v-31h-27z" />
<glyph unicode="&#xfa;" horiz-adv-x="1044" d="M84 874q0 44 30 75q30 32 81 32q31 0 56 -14q24 -15 38 -41q14 -28 14 -60q0 -54 -19 -120q-24 -83 -53 -165q-35 -101 -54 -172q-19 -72 -19 -139q0 -116 46 -177q47 -62 152 -62q69 0 133 41q62 40 121 129q43 64 88 176q-57 335 -57 471q0 46 22 80q21 35 72 35 q62 0 81 -45q20 -46 20 -134q0 -19 -10 -82q-11 -67 -33 -155q-24 -98 -56 -176l43 -230q9 -51 22 -78q14 -29 31 -42q16 -13 44 -13q29 0 60 19t77 71l30 -24q-37 -48 -77 -76q-41 -29 -90 -29q-60 0 -90 42q-29 41 -46 122l-32 170q-137 -311 -353 -311q-237 0 -237 272 q0 71 18 144q18 72 57 189q40 120 54 169q14 54 14 100q0 38 -19 57t-48 19q-70 0 -70 -68q0 -27 13 -40t46 -13v-41q-100 0 -100 94zM358 1190l23 22l49 2l270 103l119 -23l62 15l20 -21l-336 -164l-127 -82zM592 397v29h29v-29h-29zM596 770v29h31v-29h-31zM621 598v31h30 v-31h-30zM682 834l109 26q-5 37 -17 49q-13 13 -39 13q-53 0 -53 -74v-14zM686 754q1 -19 10 -86l84 4q3 13 5 26t4 25q5 26 6 45zM692 993v31h29v-31h-29zM709 571q16 -112 16 -108q5 16 11 37t10 34t10 33zM813 379v31h27v-31h-27zM842 592v29h30v-29h-30zM872 821v31h27 v-31h-27z" />
<glyph unicode="&#xfb;" horiz-adv-x="1044" d="M84 874q0 44 30 75q30 32 81 32q31 0 56 -14q24 -15 38 -41q14 -28 14 -60q0 -54 -19 -120q-24 -83 -53 -165q-35 -101 -54 -172q-19 -72 -19 -139q0 -116 46 -177q47 -62 152 -62q69 0 133 41q62 40 121 129q43 64 88 176q-57 335 -57 471q0 46 22 80q21 35 72 35 q62 0 81 -45q20 -46 20 -134q0 -19 -10 -82q-11 -67 -33 -155q-24 -98 -56 -176l43 -230q9 -51 22 -78q14 -29 31 -42q16 -13 44 -13q29 0 60 19t77 71l30 -24q-37 -48 -77 -76q-41 -29 -90 -29q-60 0 -90 42q-29 41 -46 122l-32 170q-137 -311 -353 -311q-237 0 -237 272 q0 71 18 144q18 72 57 189q40 120 54 169q14 54 14 100q0 38 -19 57t-48 19q-70 0 -70 -68q0 -27 13 -40t46 -13v-41q-100 0 -100 94zM290 1057v30l256 388l142 -385v-46h-27l-14 68l-148 119l-176 -176zM592 397v29h29v-29h-29zM596 770v29h31v-29h-31zM621 598v31h30v-31 h-30zM682 834l109 26q-5 37 -17 49q-13 13 -39 13q-53 0 -53 -74v-14zM686 754q1 -19 10 -86l84 4q3 13 5 26t4 25q5 26 6 45zM692 993v31h29v-31h-29zM709 571q16 -112 16 -108q5 16 11 37t10 34t10 33zM813 379v31h27v-31h-27zM842 592v29h30v-29h-30zM872 821v31h27v-31 h-27z" />
<glyph unicode="&#xfc;" horiz-adv-x="1044" d="M84 874q0 44 30 75q30 32 81 32q31 0 56 -14q24 -15 38 -41q14 -28 14 -60q0 -54 -19 -120q-24 -83 -53 -165q-35 -101 -54 -172q-19 -72 -19 -139q0 -116 46 -177q47 -62 152 -62q69 0 133 41q62 40 121 129q43 64 88 176q-57 335 -57 471q0 46 22 80q21 35 72 35 q62 0 81 -45q20 -46 20 -134q0 -19 -10 -82q-11 -67 -33 -155q-24 -98 -56 -176l43 -230q9 -51 22 -78q14 -29 31 -42q16 -13 44 -13q29 0 60 19t77 71l30 -24q-37 -48 -77 -76q-41 -29 -90 -29q-60 0 -90 42q-29 41 -46 122l-32 170q-137 -311 -353 -311q-237 0 -237 272 q0 71 18 144q18 72 57 189q40 120 54 169q14 54 14 100q0 38 -19 57t-48 19q-70 0 -70 -68q0 -27 13 -40t46 -13v-41q-100 0 -100 94zM279 1104l55 90q48 0 79 -14q29 -14 32 -35q0 -26 -12 -44q-15 -22 -56 -57h-63zM492 1092l76 141l43 -8q37 -7 58 -19q17 -11 17 -41 q0 -125 -47 -125l-139 4zM592 397v29h29v-29h-29zM596 770v29h31v-29h-31zM621 598v31h30v-31h-30zM682 834l109 26q-5 37 -17 49q-13 13 -39 13q-53 0 -53 -74v-14zM686 754q1 -19 10 -86l84 4q3 13 5 26t4 25q5 26 6 45zM692 993v31h29v-31h-29zM709 571q16 -112 16 -108 q5 16 11 37t10 34t10 33zM813 379v31h27v-31h-27zM842 592v29h30v-29h-30zM872 821v31h27v-31h-27z" />
<glyph unicode="&#xff;" horiz-adv-x="1077" d="M70 840l24 168l223 -4q-43 -172 -59 -259l186 -14q-3 -18 -7 -39t-7 -36q-3 -17 -11 -70q-4 -29 -4 -64q0 -137 102 -137q21 0 38 4l80 -110q56 69 103 201q20 56 40 129t34 148q28 149 32 269l147 6l2 -377l-129 2q1 -29 2.5 -61.5t5.5 -113.5q3 -68 8 -171 q3 -58 3 -140v-28q-5 -219 -66 -331q-62 -113 -219 -113q-54 0 -113 8l-176 -53l31 176l-14 82l86 -21l118 9l-32 -117l32 -41q41 -6 72 -6q135 0 187 112q52 110 55 316v28q0 79 -3 140q-3 51 -4.5 92.5t-3.5 68.5q-7 116 -8 154q-137 -536 -391 -536q-86 0 -143 33 q-57 32 -86 101t-29 175t22 234q20 127 68 311l-137 4l-18 -135zM395 1104l55 90q48 0 79 -14q29 -14 32 -35q0 -26 -12 -44q-15 -22 -56 -57h-63zM608 1092l76 141l43 -8q37 -7 58 -19q17 -11 17 -41q0 -125 -47 -125l-139 4z" />
<glyph unicode="&#x152;" horiz-adv-x="2011" d="M29 647l194 209l-188 127l254 119l-80 227l303 -80l78 264l100 -206l174 188l144 -195h94v64h45v-64l639 13l-51 -383l-226 8l54 326l-416 -11l-17 -563l668 12q6 32 37 57q29 25 70 25q44 0 76 -32q30 -33 30 -78q0 -46 -30 -78q-31 -33 -76 -33q-44 0 -73 25 q-31 24 -36 65l-668 -12l-16 -547l477 8l-2 314l242 10l8 -320h72l-2 -45l-795 -14l-4 -113l-47 3l2 110l-94 -4l-2 -268l-265 237l-106 -123l-111 240l-192 -72v256l-187 -30l119 227q-13 62 -18 117zM121 676l86 -8q-2 26 -2 28q0 33 12 84zM129 977l119 -78 q75 190 250 301l-224 68l70 -191zM184 344l105 16q-25 41 -45 95zM252 670q0 -153 80 -287q40 -66 92.5 -119.5t122.5 -95.5q136 -80 289 -80l229 6l12 545l-61 -2l2 49h63l19 569l-277 -2q-116 0 -220 -45q-105 -46 -184 -127q-80 -83 -123 -188q-44 -108 -44 -223z M342 119l111 49q-64 43 -111 104v-153zM543 113l65 -138l82 84q-10 3 -35 10q-12 3 -38 11q-20 5 -37 14q-24 11 -37 19zM549 1229q62 29 104 41l-57 121zM733 49l189 -176v170q-38 -2 -74 -2q-43 0 -115 8zM733 1286q61 10 217 10l-92 125z" />
<glyph unicode="&#x153;" horiz-adv-x="2023" d="M72 508q0 148 67 269q66 120 184 189q119 68 259 68q207 0 354 -172q67 82 173 135q103 52 202 52q90 0 157 -42q66 -43 104 -121q36 -78 36 -175q0 -60 -19 -158l-782 -41l-12 201h168l51 -135l86 116l67 -108l88 114l74 -88l113 103l114 -109q11 68 11 105 q0 92 -33 159q-34 69 -91 103q-59 35 -132 35q-87 0 -165 -37q-76 -36 -134 -89q-56 -53 -72 -89q-143 200 -358 200q-139 0 -245 -67q-107 -68 -165 -178q-59 -112 -59 -240q0 -72 15 -128q13 -56 44 -108q27 -49 64 -92q136 -157 346 -157q75 0 153 23t156 82 q79 58 158 169q37 -145 139 -215q101 -70 242 -70q90 0 178 28q89 29 168 69q-7 20 -7 41q0 51 38 89q37 37 89 37q53 0 90 -37t37 -89q0 -35 -17 -64t-46 -46t-64 -17q-62 0 -100 51q-59 -32 -125 -56q-67 -25 -127 -36q-61 -11 -114 -11q-112 0 -193 35t-127 87 q-47 52 -76 118q-97 -112 -208 -171q-110 -58 -244 -58q-140 0 -256 70q-118 71 -185 192q-69 122 -69 264zM1044 567l99 4l-45 68zM1190 573l133 7l-68 75zM1341 582l183 8l-82 86z" />
<glyph unicode="&#x178;" horiz-adv-x="1438" d="M78 1341q84 34 156 34q78 0 127 -42q48 -43 53 -127q13 -173 27 -280q14 -108 45 -220q32 -114 91 -190q58 -76 148 -76q89 0 154 77q62 75 100 191q35 104 53 199q11 58 47 283q11 72 51 121t119 49q83 0 197 -60l-76 -237l-153 10q-47 0 -79 -24q-31 -23 -40 -68 q-42 -201 -67 -277q-30 -89 -62 -147v-541l252 9v-50l-748 -26l-2 51l176 6l-41 420q-44 28 -84 83q-39 50 -77 165q-38 113 -60 287q-14 86 -102 86l-146 -7zM559 1720l55 90q48 0 79 -14q29 -14 32 -35q0 -26 -12 -44q-15 -22 -56 -57h-63zM672 229l82 -43l-80 -61 l119 -51l127 51l-56 61l62 60l-68 37l62 57l-123 27l-117 -33l59 -64zM731 231l66 29l73 -22l-59 -35zM739 319l49 23l68 -16l-59 -43zM741 133l66 43l63 -41l-77 -24zM772 1708l76 141l43 -8q37 -7 58 -19q17 -11 17 -41q0 -125 -47 -125l-139 4z" />
<glyph unicode="&#x2c6;" horiz-adv-x="711" d="M147 1057v30l256 388l142 -385v-46h-27l-14 68l-148 119l-176 -176z" />
<glyph unicode="&#x2dc;" horiz-adv-x="844" d="M141 1163q1 76 35 132q33 55 96 55q56 0 104 -23q47 -24 81 -54q23 -21 73 -61q38 -30 62 -30q57 0 57 67q0 39 -39 51l27 50q65 -41 65 -144q-1 -76 -34 -122q-31 -46 -99 -46q-75 0 -119 29q-45 30 -106 83q-61 54 -94 54q-27 0 -43 -19q-17 -20 -17 -44q0 -37 39 -58 l-24 -45q-64 34 -64 125z" />
<glyph unicode="&#x2000;" horiz-adv-x="994" />
<glyph unicode="&#x2001;" horiz-adv-x="1989" />
<glyph unicode="&#x2002;" horiz-adv-x="994" />
<glyph unicode="&#x2003;" horiz-adv-x="1989" />
<glyph unicode="&#x2004;" horiz-adv-x="663" />
<glyph unicode="&#x2005;" horiz-adv-x="497" />
<glyph unicode="&#x2006;" horiz-adv-x="331" />
<glyph unicode="&#x2007;" horiz-adv-x="331" />
<glyph unicode="&#x2008;" horiz-adv-x="248" />
<glyph unicode="&#x2009;" horiz-adv-x="397" />
<glyph unicode="&#x200a;" horiz-adv-x="110" />
<glyph unicode="&#x2010;" horiz-adv-x="719" d="M102 471l97 90l28 -8l269 4v33l120 -55l-2 -39l-57 -43h-43v20h-59l-49 -16zM236 532l51 -28l63 8h146l4 25z" />
<glyph unicode="&#x2011;" horiz-adv-x="719" d="M102 471l97 90l28 -8l269 4v33l120 -55l-2 -39l-57 -43h-43v20h-59l-49 -16zM236 532l51 -28l63 8h146l4 25z" />
<glyph unicode="&#x2012;" horiz-adv-x="719" d="M102 471l97 90l28 -8l269 4v33l120 -55l-2 -39l-57 -43h-43v20h-59l-49 -16zM236 532l51 -28l63 8h146l4 25z" />
<glyph unicode="&#x2013;" horiz-adv-x="1004" d="M102 479l134 101l38 -11l459 6v46l168 -74l-4 -41l-78 -53h-63v30h-101l-135 -22zM248 547l47 -31l151 10h318l2 27z" />
<glyph unicode="&#x2014;" horiz-adv-x="1614" d="M102 479l134 101l38 -11l1069 6v46l168 -74l-4 -41l-77 -53h-64v30h-510l-133 -22zM248 547l47 -31l151 10l928 -2l2 29z" />
<glyph unicode="&#x2018;" horiz-adv-x="891" d="M326 948l264 391l31 95l32 -2l-30 -220l-86 -170l-5 -237l-24 -25l-174 82z" />
<glyph unicode="&#x2019;" horiz-adv-x="891" d="M326 780l28 219l86 172l4 238l27 25l172 -84l10 -86l-266 -392l-31 -92h-30z" />
<glyph unicode="&#x201a;" d="M68 0v1366h684v-1366h-684zM82 14h655v1338h-655v-1338z" />
<glyph unicode="&#x201c;" horiz-adv-x="1124" d="M326 924l264 391l31 94l32 -2l-30 -219l-86 -170l-5 -238l-24 -24l-174 82zM559 952l266 391l29 93l33 -2l-29 -217l-86 -173l-4 -237l-27 -25l-172 82z" />
<glyph unicode="&#x201d;" horiz-adv-x="1124" d="M326 754l28 219l86 172l4 237l27 25l172 -84l10 -86l-266 -391l-31 -92h-30zM559 780l31 219l86 172l4 238l25 25l172 -84l10 -86l-266 -392l-29 -92h-33z" />
<glyph unicode="&#x201e;" horiz-adv-x="1124" d="M326 -399l28 219l86 170l4 237l27 25l172 -82l10 -86l-266 -391l-31 -94zM559 -373l31 219l86 170l4 238l25 27l172 -84l10 -86l-266 -392l-29 -94z" />
<glyph unicode="&#x2022;" horiz-adv-x="848" d="M184 625q0 99 70 169t170 70q62 0 120 -32q56 -32 88 -88t32 -119q0 -99 -70 -169q-71 -71 -170 -71q-98 0 -169 71t-71 169z" />
<glyph unicode="&#x2026;" horiz-adv-x="2048" d="M141 229l262 160l246 -14l29 -232l-211 -149l-219 -19zM344 188q0 -33 24 -59q24 -25 58 -25q36 0 60 25q24 26 24 59q0 34 -24 58t-60 24q-34 0 -58 -24t-24 -58zM823 229l262 160l246 -14l29 -232l-211 -149l-219 -19zM1026 188q0 -33 24 -59q24 -25 58 -25q36 0 60 25 q24 26 24 59q0 34 -24 58t-60 24q-34 0 -58 -24t-24 -58zM1505 229l262 160l246 -14l29 -232l-211 -149l-219 -19zM1708 188q0 -33 24 -59q24 -25 58 -25q36 0 60 25q24 26 24 59q0 34 -24 58t-60 24q-34 0 -58 -24t-24 -58z" />
<glyph unicode="&#x202f;" horiz-adv-x="397" />
<glyph unicode="&#x2039;" horiz-adv-x="686" d="M98 432l228 174l282 289l54 18l-207 -340l-66 -43l-8 -47q-14 0 -23 -13q-10 -13 -10 -28q0 -19 17 -34t51 -15l270 -340v-47h-33l-63 111l-473 268z" />
<glyph unicode="&#x203a;" horiz-adv-x="686" d="M0 866v47h31l63 -108l473 -270l19 -46l-228 -174l-282 -290l-53 -17l206 340l68 43l8 47q13 0 23 13q10 11 10 28q0 20 -17 35q-17 14 -53 14z" />
<glyph unicode="&#x205f;" horiz-adv-x="497" />
<glyph unicode="&#x2122;" d="M68 0v1366h684v-1366h-684zM82 14h655v1338h-655v-1338z" />
<glyph unicode="&#x25fc;" horiz-adv-x="1045" d="M0 0v1045h1045v-1045h-1045z" />
</font>
</defs>
</svg>
